<svg width="500" height="500" viewBox="0 0 500 500" fill="none" xmlns="http://www.w3.org/2000/svg">
<path d="M250 427.01C357.082 427.01 443.89 421.942 443.89 415.69C443.89 409.438 357.082 404.37 250 404.37C142.918 404.37 56.11 409.438 56.11 415.69C56.11 421.942 142.918 427.01 250 427.01Z" fill="#F5F5F5"/>
<path d="M297.59 208.89C297.59 211.73 284.26 214.04 267.83 214.04C251.4 214.04 238.06 211.73 238.06 208.89C238.06 206.05 251.39 203.74 267.83 203.74C284.27 203.74 297.59 206 297.59 208.89Z" fill="#0082CE"/>
<path opacity="0.8" d="M297.59 208.89C297.59 211.73 284.26 214.04 267.83 214.04C251.4 214.04 238.06 211.73 238.06 208.89C238.06 206.05 251.39 203.74 267.83 203.74C284.27 203.74 297.59 206 297.59 208.89Z" fill="white"/>
<path d="M258.52 216.87L257.69 227.11C257.691 227.304 257.748 227.494 257.855 227.657C257.961 227.819 258.113 227.947 258.291 228.024C258.47 228.101 258.667 228.125 258.858 228.093C259.05 228.06 259.228 227.972 259.37 227.84C259.512 227.683 259.597 227.482 259.61 227.27L260.61 216.5L258.52 216.87Z" stroke="#263238" stroke-miterlimit="10"/>
<path d="M277.23 216.87L278.06 227.11C278.059 227.304 278.002 227.494 277.895 227.657C277.789 227.819 277.637 227.947 277.459 228.024C277.28 228.101 277.083 228.125 276.892 228.093C276.7 228.06 276.522 227.972 276.38 227.84C276.238 227.681 276.151 227.482 276.13 227.27L275.13 216.5L277.23 216.87Z" stroke="#263238" stroke-miterlimit="10"/>
<path d="M259.16 218.57H257.44V215.23H259.71L259.16 218.57Z" fill="#0082CE"/>
<path d="M259.16 218.57L261.09 217.56L261.56 214.43L259.71 215.23L259.16 218.57Z" fill="#0082CE"/>
<path opacity="0.1" d="M259.16 218.57H257.44V215.23H259.71L259.16 218.57Z" fill="white"/>
<path d="M276.62 218.57H278.33V215.23H276.06L276.62 218.57Z" fill="#0082CE"/>
<path d="M276.62 218.57L274.69 217.56L274.21 214.43L276.06 215.23L276.62 218.57Z" fill="#0082CE"/>
<path opacity="0.1" d="M276.62 218.57H278.33V215.23H276.06L276.62 218.57Z" fill="white"/>
<path d="M253.93 208.21L248.03 208.69C248.017 208.69 248.004 208.695 247.995 208.705C247.985 208.714 247.98 208.727 247.98 208.74C247.98 208.753 247.985 208.766 247.995 208.775C248.004 208.785 248.017 208.79 248.03 208.79L252.65 208.94L253.93 208.21Z" fill="#0082CE"/>
<g opacity="0.3">
<path d="M253.93 208.21L248.03 208.69C248.017 208.69 248.004 208.695 247.995 208.705C247.985 208.714 247.98 208.727 247.98 208.74C247.98 208.753 247.985 208.766 247.995 208.775C248.004 208.785 248.017 208.79 248.03 208.79L252.65 208.94L253.93 208.21Z" fill="white"/>
</g>
<path d="M254.35 210.5H252V209.76C251.999 209.604 252.028 209.45 252.087 209.305C252.146 209.161 252.232 209.03 252.342 208.919C252.452 208.809 252.582 208.721 252.726 208.661C252.87 208.601 253.024 208.57 253.18 208.57C253.336 208.57 253.49 208.601 253.634 208.661C253.778 208.721 253.908 208.809 254.018 208.919C254.128 209.03 254.214 209.161 254.273 209.305C254.332 209.45 254.361 209.604 254.36 209.76L254.35 210.5Z" fill="#0082CE"/>
<path d="M253.8 207.75V208.34H252.63V207.75C252.63 207.596 252.691 207.449 252.8 207.34C252.909 207.231 253.056 207.17 253.21 207.17C253.365 207.17 253.513 207.231 253.624 207.339C253.734 207.448 253.797 207.595 253.8 207.75Z" fill="#0082CE"/>
<path opacity="0.4" d="M254.35 210.5H252V209.76C251.999 209.604 252.028 209.45 252.087 209.305C252.146 209.161 252.232 209.03 252.342 208.919C252.452 208.809 252.582 208.721 252.726 208.661C252.87 208.601 253.024 208.57 253.18 208.57C253.336 208.57 253.49 208.601 253.634 208.661C253.778 208.721 253.908 208.809 254.018 208.919C254.128 209.03 254.214 209.161 254.273 209.305C254.332 209.45 254.361 209.604 254.36 209.76L254.35 210.5Z" fill="white"/>
<path d="M257 208.05L258.2 208.2C258.248 208.206 258.293 208.228 258.328 208.261C258.363 208.295 258.387 208.338 258.396 208.386C258.405 208.434 258.398 208.483 258.378 208.527C258.357 208.571 258.323 208.607 258.28 208.63C257.759 208.936 257.173 209.114 256.57 209.15L255.12 209.23H255.04L253.42 208.79L252.74 208.42L254.33 208.13C255.21 207.963 256.111 207.936 257 208.05Z" fill="#0082CE"/>
<path opacity="0.6" d="M257 208.05L258.2 208.2C258.248 208.206 258.293 208.228 258.328 208.261C258.363 208.295 258.387 208.338 258.396 208.386C258.405 208.434 258.398 208.483 258.378 208.527C258.357 208.571 258.323 208.607 258.28 208.63C257.759 208.936 257.173 209.114 256.57 209.15L255.12 209.23H255.04L253.42 208.79L252.74 208.42L254.33 208.13C255.21 207.963 256.111 207.936 257 208.05Z" fill="white"/>
<path d="M261.32 211.23L260.84 213.29L252.39 211.94C252.183 211.94 251.985 211.858 251.838 211.712C251.692 211.565 251.61 211.367 251.61 211.16C251.61 210.953 251.692 210.755 251.838 210.608C251.985 210.462 252.183 210.38 252.39 210.38H254.08C254.219 210.378 254.356 210.414 254.476 210.485C254.596 210.555 254.694 210.657 254.76 210.78L261.32 211.23Z" fill="#0082CE"/>
<path opacity="0.4" d="M261.32 211.23L260.84 213.29L252.39 211.94C252.183 211.94 251.985 211.858 251.838 211.712C251.692 211.565 251.61 211.367 251.61 211.16C251.61 210.953 251.692 210.755 251.838 210.608C251.985 210.462 252.183 210.38 252.39 210.38H254.08C254.219 210.378 254.356 210.414 254.476 210.485C254.596 210.555 254.694 210.657 254.76 210.78L261.32 211.23Z" fill="white"/>
<path d="M281.87 208.21L287.77 208.69C287.783 208.69 287.796 208.695 287.805 208.705C287.815 208.714 287.82 208.727 287.82 208.74C287.82 208.753 287.815 208.766 287.805 208.775C287.796 208.785 287.783 208.79 287.77 208.79L283.15 208.94L281.87 208.21Z" fill="#0082CE"/>
<g opacity="0.3">
<path d="M281.87 208.21L287.77 208.69C287.783 208.69 287.796 208.695 287.805 208.705C287.815 208.714 287.82 208.727 287.82 208.74C287.82 208.753 287.815 208.766 287.805 208.775C287.796 208.785 287.783 208.79 287.77 208.79L283.15 208.94L281.87 208.21Z" fill="white"/>
</g>
<path d="M281.44 210.5H283.81V209.76C283.811 209.604 283.782 209.45 283.723 209.305C283.664 209.161 283.578 209.03 283.468 208.919C283.358 208.809 283.228 208.721 283.084 208.661C282.94 208.601 282.786 208.57 282.63 208.57C282.314 208.57 282.012 208.695 281.789 208.919C281.565 209.142 281.44 209.444 281.44 209.76V210.5Z" fill="#0082CE"/>
<path d="M282 207.75V208.34H283.17V207.75C283.151 207.608 283.082 207.478 282.974 207.383C282.867 207.289 282.728 207.237 282.585 207.237C282.442 207.237 282.303 207.289 282.196 207.383C282.088 207.478 282.019 207.608 282 207.75Z" fill="#0082CE"/>
<path opacity="0.4" d="M281.44 210.5H283.81V209.76C283.811 209.604 283.782 209.45 283.723 209.305C283.664 209.161 283.578 209.03 283.468 208.919C283.358 208.809 283.228 208.721 283.084 208.661C282.94 208.601 282.786 208.57 282.63 208.57C282.314 208.57 282.012 208.695 281.789 208.919C281.565 209.142 281.44 209.444 281.44 209.76V210.5Z" fill="white"/>
<path d="M278.77 208.05L277.57 208.2C277.521 208.205 277.475 208.225 277.438 208.258C277.402 208.29 277.377 208.334 277.367 208.382C277.357 208.43 277.362 208.48 277.383 208.525C277.403 208.569 277.437 208.606 277.48 208.63C278.005 208.935 278.594 209.113 279.2 209.15L280.65 209.23H280.73L282.34 208.79L283.03 208.42L281.44 208.13C280.56 207.963 279.659 207.936 278.77 208.05Z" fill="#0082CE"/>
<path opacity="0.6" d="M278.77 208.05L277.57 208.2C277.521 208.205 277.475 208.225 277.438 208.258C277.402 208.29 277.377 208.334 277.367 208.382C277.357 208.43 277.362 208.48 277.383 208.525C277.403 208.569 277.437 208.606 277.48 208.63C278.005 208.935 278.594 209.113 279.2 209.15L280.65 209.23H280.73L282.34 208.79L283.03 208.42L281.44 208.13C280.56 207.963 279.659 207.936 278.77 208.05Z" fill="white"/>
<path d="M274.48 211.23L274.96 213.29L283.41 211.94C283.617 211.94 283.815 211.858 283.962 211.712C284.108 211.565 284.19 211.367 284.19 211.16C284.19 210.953 284.108 210.755 283.962 210.608C283.815 210.462 283.617 210.38 283.41 210.38H281.72C281.581 210.378 281.444 210.414 281.324 210.485C281.204 210.555 281.106 210.657 281.04 210.78L274.48 211.23Z" fill="#0082CE"/>
<path opacity="0.4" d="M274.48 211.23L274.96 213.29L283.41 211.94C283.617 211.94 283.815 211.858 283.962 211.712C284.108 211.565 284.19 211.367 284.19 211.16C284.19 210.953 284.108 210.755 283.962 210.608C283.815 210.462 283.617 210.38 283.41 210.38H281.72C281.581 210.378 281.444 210.414 281.324 210.485C281.204 210.555 281.106 210.657 281.04 210.78L274.48 211.23Z" fill="white"/>
<path d="M246.76 207.44C246.92 207.44 254.54 206.58 258.03 206.2C258.057 206.2 258.082 206.211 258.101 206.229C258.119 206.248 258.13 206.273 258.13 206.3C258.13 206.327 258.119 206.352 258.101 206.371C258.082 206.389 258.057 206.4 258.03 206.4L249.4 208.34L246.76 207.44Z" fill="#0082CE"/>
<path opacity="0.6" d="M246.76 207.44C246.92 207.44 254.54 206.58 258.03 206.2C258.057 206.2 258.082 206.211 258.101 206.229C258.119 206.248 258.13 206.273 258.13 206.3C258.13 206.327 258.119 206.352 258.101 206.371C258.082 206.389 258.057 206.4 258.03 206.4L249.4 208.34L246.76 207.44Z" fill="white"/>
<path d="M249.43 207.35C249.43 207.548 249.371 207.741 249.261 207.906C249.152 208.07 248.995 208.198 248.813 208.274C248.63 208.35 248.429 208.369 248.235 208.331C248.041 208.292 247.863 208.197 247.723 208.057C247.583 207.917 247.488 207.739 247.449 207.545C247.411 207.351 247.43 207.15 247.506 206.967C247.582 206.785 247.71 206.628 247.874 206.519C248.039 206.409 248.232 206.35 248.43 206.35C248.695 206.35 248.95 206.455 249.137 206.643C249.325 206.83 249.43 207.085 249.43 207.35Z" fill="#0082CE"/>
<path d="M249.43 207.35H247.45V208.34H249.43V207.35Z" fill="#0082CE"/>
<path d="M249.01 208.34H247.86V208.86H249.01V208.34Z" fill="#0082CE"/>
<path d="M240.88 208.25L238.68 208.97C238.594 209 238.52 209.056 238.467 209.131C238.414 209.205 238.386 209.294 238.386 209.385C238.386 209.476 238.414 209.565 238.467 209.639C238.52 209.714 238.594 209.77 238.68 209.8C239.772 210.188 240.941 210.312 242.09 210.16L244.85 209.79H244.99L247.87 208.38L249.02 207.38H245.94C244.218 207.402 242.51 207.695 240.88 208.25Z" fill="#0082CE"/>
<g opacity="0.6">
<path d="M240.88 208.25L238.68 208.97C238.594 209 238.52 209.056 238.467 209.131C238.414 209.205 238.386 209.294 238.386 209.385C238.386 209.476 238.414 209.565 238.467 209.639C238.52 209.714 238.594 209.77 238.68 209.8C239.772 210.188 240.941 210.312 242.09 210.16L244.85 209.79H244.99L247.87 208.38L249.02 207.38H245.94C244.218 207.402 242.51 207.695 240.88 208.25Z" fill="white"/>
</g>
<path d="M248.37 208.75C248.9 208.75 249.409 208.961 249.784 209.336C250.159 209.711 250.37 210.22 250.37 210.75V212H246.37V210.73C246.375 210.203 246.588 209.699 246.963 209.329C247.337 208.958 247.843 208.75 248.37 208.75Z" fill="#0082CE"/>
<path opacity="0.2" d="M248.37 208.75C248.9 208.75 249.409 208.961 249.784 209.336C250.159 209.711 250.37 210.22 250.37 210.75V212H246.37V210.73C246.375 210.203 246.588 209.699 246.963 209.329C247.337 208.958 247.843 208.75 248.37 208.75Z" fill="white"/>
<path d="M270.64 220.47H264.93L265.19 219.93C265.295 219.72 265.457 219.544 265.656 219.42C265.856 219.297 266.085 219.231 266.32 219.23H269.25C269.484 219.229 269.713 219.295 269.911 219.418C270.109 219.542 270.268 219.72 270.37 219.93L270.64 220.47Z" fill="#0082CE"/>
<path opacity="0.1" d="M270.64 220.47H264.93L265.19 219.93C265.295 219.72 265.457 219.544 265.656 219.42C265.856 219.297 266.085 219.231 266.32 219.23H269.25C269.484 219.229 269.713 219.295 269.911 219.418C270.109 219.542 270.268 219.72 270.37 219.93L270.64 220.47Z" fill="white"/>
<path opacity="0.3" d="M268.46 216.26H267.02V219.59H268.46V216.26Z" fill="black"/>
<path d="M269.63 219.86H265.95C265.304 219.86 264.78 220.384 264.78 221.03V222.8C264.78 223.446 265.304 223.97 265.95 223.97H269.63C270.276 223.97 270.8 223.446 270.8 222.8V221.03C270.8 220.384 270.276 219.86 269.63 219.86Z" fill="#0082CE"/>
<path opacity="0.2" d="M269.63 219.86H265.95C265.304 219.86 264.78 220.384 264.78 221.03V222.8C264.78 223.446 265.304 223.97 265.95 223.97H269.63C270.276 223.97 270.8 223.446 270.8 222.8V221.03C270.8 220.384 270.276 219.86 269.63 219.86Z" fill="white"/>
<path d="M269.63 223H265.85V222.65C265.85 222.149 266.049 221.668 266.404 221.314C266.758 220.959 267.239 220.76 267.74 220.76C268.241 220.76 268.722 220.959 269.076 221.314C269.431 221.668 269.63 222.149 269.63 222.65V223Z" fill="#0082CE"/>
<path d="M269.63 222.79C269.564 223.244 269.336 223.659 268.989 223.959C268.642 224.259 268.199 224.424 267.74 224.424C267.281 224.424 266.838 224.259 266.491 223.959C266.144 223.659 265.916 223.244 265.85 222.79C265.898 222.322 266.118 221.889 266.467 221.574C266.816 221.259 267.27 221.085 267.74 221.085C268.21 221.085 268.664 221.259 269.013 221.574C269.362 221.889 269.582 222.322 269.63 222.79Z" fill="#0082CE"/>
<path opacity="0.3" d="M269.63 222.79C269.564 223.244 269.336 223.659 268.989 223.959C268.642 224.259 268.199 224.424 267.74 224.424C267.281 224.424 266.838 224.259 266.491 223.959C266.144 223.659 265.916 223.244 265.85 222.79C265.898 222.322 266.118 221.889 266.467 221.574C266.816 221.259 267.27 221.085 267.74 221.085C268.21 221.085 268.664 221.259 269.013 221.574C269.362 221.889 269.582 222.322 269.63 222.79Z" fill="black"/>
<path d="M267.71 224.18C268.533 224.18 269.2 223.629 269.2 222.95C269.2 222.271 268.533 221.72 267.71 221.72C266.887 221.72 266.22 222.271 266.22 222.95C266.22 223.629 266.887 224.18 267.71 224.18Z" fill="#0082CE"/>
<path opacity="0.2" d="M267.71 224.18C268.533 224.18 269.2 223.629 269.2 222.95C269.2 222.271 268.533 221.72 267.71 221.72C266.887 221.72 266.22 222.271 266.22 222.95C266.22 223.629 266.887 224.18 267.71 224.18Z" fill="black"/>
<path d="M268.83 223C268.786 223.264 268.651 223.505 268.446 223.678C268.242 223.851 267.983 223.946 267.715 223.946C267.447 223.946 267.188 223.851 266.984 223.678C266.78 223.505 266.644 223.264 266.6 223C266.654 222.745 266.795 222.516 266.998 222.351C267.201 222.187 267.454 222.097 267.715 222.097C267.976 222.097 268.229 222.187 268.432 222.351C268.635 222.516 268.776 222.745 268.83 223Z" fill="#0082CE"/>
<path opacity="0.3" d="M268.83 223C268.786 223.264 268.651 223.505 268.446 223.678C268.242 223.851 267.983 223.946 267.715 223.946C267.447 223.946 267.188 223.851 266.984 223.678C266.78 223.505 266.644 223.264 266.6 223C266.654 222.745 266.795 222.516 266.998 222.351C267.201 222.187 267.454 222.097 267.715 222.097C267.976 222.097 268.229 222.187 268.432 222.351C268.635 222.516 268.776 222.745 268.83 223Z" fill="black"/>
<path d="M267.72 223.43C268.09 223.43 268.39 223.179 268.39 222.87C268.39 222.561 268.09 222.31 267.72 222.31C267.35 222.31 267.05 222.561 267.05 222.87C267.05 223.179 267.35 223.43 267.72 223.43Z" fill="#0082CE"/>
<path opacity="0.4" d="M267.72 223.43C268.09 223.43 268.39 223.179 268.39 222.87C268.39 222.561 268.09 222.31 267.72 222.31C267.35 222.31 267.05 222.561 267.05 222.87C267.05 223.179 267.35 223.43 267.72 223.43Z" fill="black"/>
<path d="M268.24 222.76C268.227 222.886 268.166 223.001 268.068 223.082C267.971 223.162 267.846 223.201 267.72 223.19C267.656 223.204 267.589 223.203 267.525 223.188C267.461 223.173 267.402 223.144 267.351 223.103C267.299 223.061 267.258 223.009 267.23 222.95C267.201 222.891 267.187 222.826 267.187 222.76C267.187 222.694 267.201 222.629 267.23 222.57C267.258 222.511 267.299 222.459 267.351 222.417C267.402 222.376 267.461 222.347 267.525 222.332C267.589 222.317 267.656 222.316 267.72 222.33C267.846 222.319 267.971 222.358 268.068 222.438C268.166 222.519 268.227 222.634 268.24 222.76Z" fill="#0082CE"/>
<path d="M268 222.68C268 222.78 267.87 222.87 267.71 222.87C267.55 222.87 267.43 222.78 267.43 222.68C267.43 222.58 267.56 222.48 267.71 222.48C267.86 222.48 268 222.57 268 222.68Z" fill="#0082CE"/>
<path opacity="0.2" d="M268 222.68C268 222.78 267.87 222.87 267.71 222.87C267.55 222.87 267.43 222.78 267.43 222.68C267.43 222.58 267.56 222.48 267.71 222.48C267.86 222.48 268 222.57 268 222.68Z" fill="white"/>
<path d="M268.6 217.53H266.88C266.615 217.53 266.36 217.425 266.173 217.237C265.985 217.05 265.88 216.795 265.88 216.53C265.88 216.265 265.985 216.01 266.173 215.823C266.36 215.635 266.615 215.53 266.88 215.53H268.6C268.865 215.53 269.12 215.635 269.307 215.823C269.495 216.01 269.6 216.265 269.6 216.53C269.6 216.795 269.495 217.05 269.307 217.237C269.12 217.425 268.865 217.53 268.6 217.53Z" fill="#0082CE"/>
<path d="M288.76 211.76H285.89C285.596 211.759 285.311 211.858 285.08 212.04H250.68C250.449 211.858 250.164 211.759 249.87 211.76H247C246.645 211.76 246.304 211.901 246.052 212.152C245.801 212.404 245.66 212.745 245.66 213.1C245.663 213.454 245.805 213.792 246.056 214.041C246.307 214.29 246.646 214.43 247 214.43H249.11L261.33 215.63L262.49 217.63C262.788 218.132 263.211 218.547 263.717 218.837C264.224 219.126 264.797 219.279 265.38 219.28H270.38C270.963 219.279 271.536 219.126 272.043 218.837C272.549 218.547 272.972 218.132 273.27 217.63L274.43 215.63L286.65 214.43H288.76C289.114 214.43 289.453 214.29 289.704 214.041C289.955 213.792 290.097 213.454 290.1 213.1C290.1 212.924 290.065 212.75 289.998 212.587C289.931 212.425 289.832 212.277 289.708 212.152C289.583 212.028 289.435 211.929 289.273 211.862C289.11 211.795 288.936 211.76 288.76 211.76Z" fill="#0082CE"/>
<path opacity="0.2" d="M288.76 211.76H285.89C285.596 211.759 285.311 211.858 285.08 212.04H250.68C250.449 211.858 250.164 211.759 249.87 211.76H247C246.645 211.76 246.304 211.901 246.052 212.152C245.801 212.404 245.66 212.745 245.66 213.1C245.663 213.454 245.805 213.792 246.056 214.041C246.307 214.29 246.646 214.43 247 214.43H249.11L261.33 215.63L262.49 217.63C262.788 218.132 263.211 218.547 263.717 218.837C264.224 219.126 264.797 219.279 265.38 219.28H270.38C270.963 219.279 271.536 219.126 272.043 218.837C272.549 218.547 272.972 218.132 273.27 217.63L274.43 215.63L286.65 214.43H288.76C289.114 214.43 289.453 214.29 289.704 214.041C289.955 213.792 290.097 213.454 290.1 213.1C290.1 212.924 290.065 212.75 289.998 212.587C289.931 212.425 289.832 212.277 289.708 212.152C289.583 212.028 289.435 211.929 289.273 211.862C289.11 211.795 288.936 211.76 288.76 211.76Z" fill="white"/>
<path d="M267.79 214.57C271.932 214.57 275.29 213.437 275.29 212.04C275.29 210.643 271.932 209.51 267.79 209.51C263.648 209.51 260.29 210.643 260.29 212.04C260.29 213.437 263.648 214.57 267.79 214.57Z" fill="#0082CE"/>
<path opacity="0.4" d="M267.79 214.57C271.932 214.57 275.29 213.437 275.29 212.04C275.29 210.643 271.932 209.51 267.79 209.51C263.648 209.51 260.29 210.643 260.29 212.04C260.29 213.437 263.648 214.57 267.79 214.57Z" fill="white"/>
<path d="M289 207.44C288.84 207.44 281.21 206.58 277.72 206.2C277.693 206.2 277.668 206.211 277.649 206.229C277.631 206.248 277.62 206.273 277.62 206.3C277.62 206.327 277.631 206.352 277.649 206.371C277.668 206.389 277.693 206.4 277.72 206.4L286.36 208.34L289 207.44Z" fill="#0082CE"/>
<path opacity="0.6" d="M289 207.44C288.84 207.44 281.21 206.58 277.72 206.2C277.693 206.2 277.668 206.211 277.649 206.229C277.631 206.248 277.62 206.273 277.62 206.3C277.62 206.327 277.631 206.352 277.649 206.371C277.668 206.389 277.693 206.4 277.72 206.4L286.36 208.34L289 207.44Z" fill="white"/>
<path d="M286.31 207.35C286.31 207.548 286.369 207.741 286.479 207.906C286.588 208.07 286.745 208.198 286.927 208.274C287.11 208.35 287.311 208.369 287.505 208.331C287.699 208.292 287.877 208.197 288.017 208.057C288.157 207.917 288.252 207.739 288.291 207.545C288.329 207.351 288.31 207.15 288.234 206.967C288.158 206.785 288.03 206.628 287.866 206.519C287.701 206.409 287.508 206.35 287.31 206.35C287.045 206.35 286.79 206.455 286.603 206.643C286.415 206.83 286.31 207.085 286.31 207.35Z" fill="#0082CE"/>
<path d="M286.3 208.34H288.28V207.35H286.3V208.34Z" fill="#0082CE"/>
<path d="M286.72 208.86H287.87V208.34H286.72V208.86Z" fill="#0082CE"/>
<path d="M294.86 208.25L297.06 208.97C297.146 209 297.22 209.056 297.273 209.131C297.326 209.205 297.354 209.294 297.354 209.385C297.354 209.476 297.326 209.565 297.273 209.639C297.22 209.714 297.146 209.77 297.06 209.8C295.965 210.189 294.792 210.313 293.64 210.16L290.88 209.79H290.75L287.86 208.38L286.71 207.38H289.8C291.522 207.402 293.229 207.696 294.86 208.25Z" fill="#0082CE"/>
<g opacity="0.6">
<path d="M294.86 208.25L297.06 208.97C297.146 209 297.22 209.056 297.273 209.131C297.326 209.205 297.354 209.294 297.354 209.385C297.354 209.476 297.326 209.565 297.273 209.639C297.22 209.714 297.146 209.77 297.06 209.8C295.965 210.189 294.792 210.313 293.64 210.16L290.88 209.79H290.75L287.86 208.38L286.71 207.38H289.8C291.522 207.402 293.229 207.696 294.86 208.25Z" fill="white"/>
</g>
<path d="M285.35 212H289.35V210.73C289.35 210.2 289.139 209.691 288.764 209.316C288.389 208.941 287.88 208.73 287.35 208.73C286.82 208.73 286.311 208.941 285.936 209.316C285.561 209.691 285.35 210.2 285.35 210.73V212Z" fill="#0082CE"/>
<path opacity="0.2" d="M285.35 212H289.35V210.73C289.35 210.2 289.139 209.691 288.764 209.316C288.389 208.941 287.88 208.73 287.35 208.73C286.82 208.73 286.311 208.941 285.936 209.316C285.561 209.691 285.35 210.2 285.35 210.73V212Z" fill="white"/>
<path d="M291 291.94C290.813 290.113 290.63 288.277 290.45 286.43H290.95C291.12 288.26 291.31 290.09 291.5 291.93L291 291.94Z" fill="#0082CE"/>
<path d="M289.69 278.16C289.43 274.95 289.18 271.7 288.97 268.5H289.47C289.68 271.7 289.93 274.95 290.19 278.15L289.69 278.16Z" fill="#0082CE"/>
<path d="M288.45 259.53C287.74 245.28 287.62 231.32 288.11 218.02H288.61C288.12 231.3 288.24 245.25 288.95 259.48L288.45 259.53Z" fill="#0082CE"/>
<path d="M269.13 282.76C268.41 281.18 267.71 279.59 267.01 278L267.47 277.8C268.17 279.39 268.87 280.97 269.59 282.55L269.13 282.76Z" fill="#0082CE"/>
<path d="M263.89 270.62C256.25 252 251.19 235.3 248.42 219.55L248.92 219.47C251.68 235.18 256.73 251.85 264.35 270.47L263.89 270.62Z" fill="#0082CE"/>
<path d="M290 146.27C288.891 145.247 287.625 144.41 286.25 143.79L282 141.86L271.42 145.71L296.81 158.86C297.401 159.167 298.049 159.347 298.714 159.39C299.378 159.433 300.044 159.338 300.67 159.11L301.67 158.75C301.807 158.7 301.928 158.616 302.023 158.506C302.118 158.396 302.183 158.264 302.213 158.121C302.242 157.979 302.234 157.831 302.19 157.693C302.145 157.554 302.066 157.429 301.96 157.33L290 146.27Z" fill="#0082CE"/>
<path opacity="0.3" d="M290 146.27C288.891 145.247 287.625 144.41 286.25 143.79L282 141.86L271.42 145.71L296.81 158.86C297.401 159.167 298.049 159.347 298.714 159.39C299.378 159.433 300.044 159.338 300.67 159.11L301.67 158.75C301.807 158.7 301.928 158.616 302.023 158.506C302.118 158.396 302.183 158.264 302.213 158.121C302.242 157.979 302.234 157.831 302.19 157.693C302.145 157.554 302.066 157.429 301.96 157.33L290 146.27Z" fill="white"/>
<path d="M290.41 123.79L280.61 81.91L270.48 85.59L268.28 133.47L291.23 126.03L290.41 123.79Z" fill="#0082CE"/>
<path opacity="0.6" d="M290.41 123.79L280.61 81.91L270.48 85.59L268.28 133.47L291.23 126.03L290.41 123.79Z" fill="white"/>
<path d="M351.46 140.63L433.74 178.57C434.951 179.131 436.302 179.319 437.62 179.11L440.15 178.7C440.49 178.644 440.808 178.496 441.071 178.273C441.334 178.051 441.532 177.761 441.644 177.435C441.755 177.109 441.777 176.759 441.706 176.422C441.635 176.085 441.474 175.773 441.24 175.52C440.45 174.689 439.619 173.898 438.75 173.15C434.33 169.33 385.87 128.15 385.87 128.15L351.46 140.63Z" fill="#0082CE"/>
<path opacity="0.3" d="M351.46 140.63L433.74 178.57C434.951 179.131 436.302 179.319 437.62 179.11L440.15 178.7C440.49 178.644 440.808 178.496 441.071 178.273C441.334 178.051 441.532 177.761 441.644 177.435C441.755 177.109 441.777 176.759 441.706 176.422C441.635 176.085 441.474 175.773 441.24 175.52C440.45 174.689 439.619 173.898 438.75 173.15C434.33 169.33 385.87 128.15 385.87 128.15L351.46 140.63Z" fill="white"/>
<path d="M253.52 140.39C253.187 140.953 252.986 141.584 252.933 142.236C252.879 142.888 252.973 143.544 253.209 144.154C253.445 144.764 253.816 145.312 254.294 145.759C254.772 146.205 255.345 146.537 255.97 146.73C267.11 150.15 307.42 159.5 365.48 138.37C431.38 114.37 446.89 102.77 445.15 93.82C444.987 93.0817 444.711 92.3732 444.33 91.72C442 87.56 430.65 71.51 401.72 82L269 130.32C269 130.32 257.11 134.42 253.52 140.39Z" fill="#0082CE"/>
<path d="M294.29 121.12L401.72 82C430.65 71.48 441.96 87.53 444.33 91.69C444.711 92.3432 444.987 93.0517 445.15 93.79C446.89 102.79 431.38 114.37 365.48 138.34C307.42 159.47 267.11 150.12 255.97 146.7C255.345 146.507 254.772 146.175 254.294 145.729C253.816 145.282 253.445 144.734 253.209 144.124C252.973 143.514 252.879 142.858 252.933 142.206C252.986 141.554 253.187 140.923 253.52 140.36C257.11 134.36 269 130.29 269 130.29L294.29 121.12Z" fill="#0082CE"/>
<path opacity="0.1" d="M395.13 106.36C347.23 124.66 284.62 144.16 259.83 147.81C274.77 151.63 312.83 157.53 365.48 138.37C431.11 114.49 446.76 102.86 445.16 93.93C438.91 93.18 425.2 94.87 395.13 106.36Z" fill="black"/>
<g opacity="0.7">
<path d="M415.243 88.0594L275.637 137.552L275.971 138.494L415.577 89.0019L415.243 88.0594Z" fill="black"/>
</g>
<path d="M321 124.86L344.56 116.29C345.753 115.867 346.753 115.026 347.374 113.923C347.995 112.82 348.196 111.53 347.94 110.29C347.4 107.8 345.55 104.79 340.44 102.36L221.59 55.52C220.825 55.2194 220.012 55.0601 219.19 55.05L209.82 54.92C209.666 54.9199 209.516 54.9698 209.393 55.0622C209.27 55.1546 209.181 55.2844 209.138 55.4322C209.095 55.58 209.101 55.7377 209.156 55.8816C209.21 56.0255 209.31 56.1477 209.44 56.23L321 124.86Z" fill="#0082CE"/>
<path opacity="0.3" d="M321 124.86L344.56 116.29C345.753 115.867 346.753 115.026 347.374 113.923C347.995 112.82 348.196 111.53 347.94 110.29C347.4 107.8 345.55 104.79 340.44 102.36L221.59 55.52C220.825 55.2194 220.012 55.0601 219.19 55.05L209.82 54.92C209.666 54.9199 209.516 54.9698 209.393 55.0622C209.27 55.1546 209.181 55.2844 209.138 55.4322C209.095 55.58 209.101 55.7377 209.156 55.8816C209.21 56.0255 209.31 56.1477 209.44 56.23L321 124.86Z" fill="white"/>
<path d="M267.35 185.06H263.89V184.56H267.34L267.35 185.06Z" fill="#0082CE"/>
<path d="M276.33 185.08V184.58C279.33 184.58 282.33 184.58 285.33 184.51V185.01C282.32 185 279.32 185.07 276.33 185.08Z" fill="#0082CE"/>
<path d="M294.29 184.88V184.38C311.05 184.08 327.43 183.47 341.23 182.92V183.42C327.43 184 311.06 184.58 294.29 184.88Z" fill="#0082CE"/>
<path d="M363.459 181.993L350.25 182.535L350.27 183.035L363.479 182.493L363.459 181.993Z" fill="#0082CE"/>
<path d="M372.5 182.09V181.59C378.91 181.29 385.5 180.97 392.02 180.59C406.21 179.86 417.1 179.24 427.32 178.59V179.09C417.09 179.74 406.2 180.36 392 181.09C385.48 181.47 378.91 181.79 372.5 182.09Z" fill="#0082CE"/>
<path d="M190.274 124.748L188.424 131.975L188.908 132.099L190.758 124.872L190.274 124.748Z" fill="#0082CE"/>
<path d="M197.537 97.0954L192.803 114.99L193.286 115.118L198.02 97.2233L197.537 97.0954Z" fill="#0082CE"/>
<path d="M200.47 88.08L200 88C200 87.81 205.2 68.71 207.69 59.21L208.17 59.34C205.67 68.79 200.52 87.89 200.47 88.08Z" fill="#0082CE"/>
<g opacity="0.7">
<path d="M286.66 131.24C285.88 131.52 285.32 131.01 285.4 130.11L285.54 128.47C285.591 128.009 285.76 127.57 286.032 127.195C286.303 126.82 286.668 126.522 287.09 126.33C287.86 126.05 288.42 126.55 288.34 127.46L288.2 129.09C288.151 129.551 287.984 129.991 287.714 130.368C287.444 130.745 287.081 131.045 286.66 131.24Z" fill="black"/>
<path d="M292.13 129.24C291.36 129.53 290.8 129.02 290.88 128.12L291.02 126.48C291.07 126.021 291.239 125.582 291.509 125.208C291.778 124.833 292.141 124.534 292.56 124.34C293.34 124.05 293.9 124.56 293.82 125.46L293.68 127.1C293.63 127.561 293.46 128 293.188 128.375C292.917 128.75 292.552 129.048 292.13 129.24Z" fill="black"/>
<path d="M297.61 127.25C296.84 127.53 296.28 127.03 296.35 126.12L296.5 124.49C296.549 124.029 296.716 123.589 296.986 123.212C297.256 122.835 297.619 122.535 298.04 122.34C298.81 122.06 299.38 122.57 299.3 123.47L299.15 125.11C299.099 125.569 298.931 126.008 298.661 126.382C298.392 126.757 298.029 127.056 297.61 127.25Z" fill="black"/>
<path d="M303.09 125.26C302.32 125.54 301.75 125.04 301.83 124.13L301.98 122.49C302.03 122.031 302.199 121.592 302.469 121.218C302.738 120.843 303.101 120.544 303.52 120.35C304.29 120.07 304.85 120.57 304.77 121.48L304.63 123.11C304.581 123.571 304.414 124.011 304.144 124.388C303.874 124.765 303.511 125.065 303.09 125.26Z" fill="black"/>
<path d="M308.57 123.27C307.79 123.55 307.23 123.04 307.31 122.14L307.45 120.5C307.501 120.039 307.67 119.6 307.942 119.225C308.213 118.85 308.578 118.552 309 118.36C309.77 118.08 310.33 118.58 310.25 119.48L310.11 121.12C310.058 121.58 309.89 122.019 309.62 122.396C309.35 122.772 308.989 123.073 308.57 123.27Z" fill="black"/>
<path d="M350.35 108.06C349.58 108.34 349.02 107.84 349.1 106.93L349.24 105.3C349.289 104.839 349.456 104.399 349.726 104.022C349.996 103.645 350.359 103.345 350.78 103.15C351.56 102.87 352.12 103.38 352.04 104.28L351.9 105.92C351.85 106.381 351.68 106.82 351.408 107.195C351.137 107.57 350.772 107.868 350.35 108.06Z" fill="black"/>
<path d="M355.83 106.07C355.06 106.35 354.5 105.84 354.58 104.94L354.72 103.3C354.771 102.841 354.939 102.402 355.209 102.028C355.478 101.653 355.841 101.354 356.26 101.16C357.03 100.88 357.6 101.38 357.52 102.29L357.37 103.92C357.323 104.382 357.156 104.823 356.886 105.2C356.616 105.577 356.252 105.877 355.83 106.07Z" fill="black"/>
<path d="M361.31 104.08C360.54 104.36 359.97 103.85 360.05 102.95L360.2 101.31C360.25 100.851 360.419 100.412 360.689 100.038C360.958 99.6626 361.321 99.3637 361.74 99.17C362.51 98.88 363.07 99.39 363 100.29L362.85 101.93C362.798 102.39 362.63 102.829 362.36 103.206C362.09 103.582 361.729 103.883 361.31 104.08Z" fill="black"/>
<path d="M366.79 102.08C366.01 102.36 365.45 101.86 365.53 100.95L365.67 99.32C365.719 98.8577 365.888 98.4162 366.159 98.0391C366.431 97.662 366.797 97.3624 367.22 97.17C367.99 96.89 368.55 97.4 368.47 98.3L368.33 99.94C368.28 100.399 368.111 100.838 367.841 101.212C367.572 101.587 367.209 101.886 366.79 102.08Z" fill="black"/>
<path d="M372.26 100.09C371.49 100.37 370.93 99.87 371.01 98.96L371.15 97.33C371.199 96.8691 371.366 96.4286 371.636 96.0518C371.906 95.675 372.269 95.3746 372.69 95.18C373.47 94.9 374.03 95.4 373.95 96.31L373.81 97.94C373.761 98.4023 373.593 98.8438 373.321 99.2209C373.049 99.598 372.683 99.8976 372.26 100.09Z" fill="black"/>
<path d="M378.13 98C377.36 98.28 376.79 97.77 376.87 96.87L377.02 95.23C377.069 94.7702 377.236 94.331 377.506 93.9558C377.776 93.5805 378.139 93.2821 378.56 93.09C379.33 92.81 379.89 93.31 379.81 94.21L379.67 95.85C379.618 96.3101 379.45 96.7492 379.18 97.1256C378.91 97.502 378.549 97.803 378.13 98Z" fill="black"/>
<path d="M383.61 96C382.83 96.28 382.27 95.78 382.35 94.88L382.49 93.24C382.53 92.7754 382.691 92.3292 382.955 91.9453C383.22 91.5614 383.58 91.2528 384 91.05C384.77 90.77 385.33 91.28 385.25 92.18L385.11 93.82C385.07 94.2821 384.911 94.7259 384.648 95.108C384.385 95.4902 384.027 95.7975 383.61 96Z" fill="black"/>
<path d="M389.08 94C388.31 94.28 387.75 93.78 387.83 92.87L387.97 91.24C388.019 90.779 388.186 90.3386 388.456 89.9618C388.726 89.585 389.089 89.2846 389.51 89.09C390.29 88.81 390.85 89.31 390.77 90.22L390.63 91.85C390.581 92.3123 390.412 92.7538 390.141 93.1309C389.869 93.508 389.503 93.8076 389.08 94Z" fill="black"/>
<path d="M394.56 92C393.79 92.28 393.23 91.77 393.3 90.87L393.45 89.23C393.498 88.7662 393.666 88.3231 393.938 87.9443C394.21 87.5654 394.576 87.2641 395 87.07C395.77 86.79 396.34 87.29 396.26 88.2L396.11 89.83C396.063 90.2955 395.896 90.7408 395.624 91.1215C395.352 91.5022 394.985 91.8051 394.56 92Z" fill="black"/>
<path d="M400 90C399.23 90.29 398.66 89.78 398.74 88.88L398.89 87.24C398.94 86.7793 399.108 86.3394 399.378 85.9627C399.647 85.586 400.01 85.2854 400.43 85.09C401.2 84.81 401.76 85.32 401.68 86.22L401.54 87.86C401.49 88.3192 401.321 88.7575 401.051 89.1325C400.782 89.5074 400.419 89.8063 400 90Z" fill="black"/>
</g>
<path opacity="0.7" d="M422.23 81.05C420.375 81.6031 418.651 82.5248 417.16 83.76C417.16 83.76 419.36 83.71 422.5 83.83L422.23 81.05Z" fill="black"/>
<g opacity="0.7">
<path d="M429.64 84.35C432.656 84.6393 435.633 85.2495 438.52 86.17C435.99 83.7942 432.938 82.0441 429.61 81.06L429.64 84.35Z" fill="black"/>
<path d="M427.8 80.68C426.491 80.485 425.159 80.485 423.85 80.68L424.16 83.89C425.32 83.95 426.56 84.04 427.83 84.15L427.8 80.68Z" fill="black"/>
</g>
<path d="M320 89.42C312.772 92.6662 305.722 96.2946 298.88 100.29C297.914 102.928 297.911 105.823 298.872 108.463C299.833 111.103 301.695 113.319 304.13 114.72C311.941 113.382 319.675 111.629 327.3 109.47C331.45 107.96 333.19 102.24 331.17 96.71C329.15 91.18 324.16 87.91 320 89.42Z" fill="#0082CE"/>
<path opacity="0.1" d="M320 89.42C312.772 92.6662 305.722 96.2946 298.88 100.29C297.914 102.928 297.911 105.823 298.872 108.463C299.833 111.103 301.695 113.319 304.13 114.72C311.941 113.382 319.675 111.629 327.3 109.47C331.45 107.96 333.19 102.24 331.17 96.71C329.15 91.18 324.16 87.91 320 89.42Z" fill="black"/>
<path opacity="0.7" d="M329.65 97.26C331.26 101.68 329.87 106.26 326.56 107.44C323.25 108.62 319.26 106.04 317.65 101.63C316.04 97.22 317.43 92.63 320.74 91.45C324.05 90.27 328 92.85 329.65 97.26Z" fill="black"/>
<path d="M396.87 134.53C390.323 137.468 383.938 140.753 377.74 144.37C376.866 146.759 376.863 149.38 377.732 151.771C378.601 154.162 380.286 156.17 382.49 157.44C389.569 156.23 396.579 154.644 403.49 152.69C407.25 151.32 408.82 146.15 407 141.13C405.18 136.11 400.63 133.16 396.87 134.53Z" fill="#0082CE"/>
<path opacity="0.1" d="M396.87 134.53C390.323 137.468 383.938 140.753 377.74 144.37C376.866 146.759 376.863 149.38 377.732 151.771C378.601 154.162 380.286 156.17 382.49 157.44C389.569 156.23 396.579 154.644 403.49 152.69C407.25 151.32 408.82 146.15 407 141.13C405.18 136.11 400.63 133.16 396.87 134.53Z" fill="black"/>
<path opacity="0.7" d="M405.61 141.63C407.06 145.63 405.81 149.76 402.81 150.85C399.81 151.94 396.19 149.59 394.74 145.59C393.29 141.59 394.54 137.46 397.54 136.37C400.54 135.28 404.15 137.63 405.61 141.63Z" fill="black"/>
<path d="M268.11 135.61L229.27 118.13C228.501 117.787 227.671 117.603 226.83 117.59L221.63 117.53C221.376 117.524 221.127 117.605 220.925 117.759C220.723 117.913 220.579 118.131 220.517 118.378C220.456 118.625 220.48 118.885 220.586 119.116C220.691 119.347 220.873 119.536 221.1 119.65L258.6 139.07L268.11 135.61Z" fill="#0082CE"/>
<path opacity="0.4" d="M268.11 135.61L229.27 118.13C228.501 117.787 227.671 117.603 226.83 117.59L221.63 117.53C221.376 117.524 221.127 117.605 220.925 117.759C220.723 117.913 220.579 118.131 220.517 118.378C220.456 118.625 220.48 118.885 220.586 119.116C220.691 119.347 220.873 119.536 221.1 119.65L258.6 139.07L268.11 135.61Z" fill="white"/>
<path d="M184.48 215.42L177.86 213.93L177.98 213.44L184.59 214.93L184.48 215.42Z" fill="#0082CE"/>
<path d="M170.44 212.25L159.33 209.54C142.65 205.54 125.41 201.3 109.33 197.01L109.46 196.53C125.53 200.82 142.77 205 159.46 209.06L170.58 211.76L170.44 212.25Z" fill="#0082CE"/>
<path d="M167.32 203C159.05 201.06 152.25 199.32 145.9 197.52L146.04 197.03C152.38 198.83 159.17 200.57 167.44 202.51L167.32 203Z" fill="#0082CE"/>
<path d="M139.29 195.79L138.54 195.58C136.6 195.04 134.59 194.49 132.67 193.77L132.85 193.3C134.74 194.01 136.74 194.56 138.67 195.1L139.43 195.3L139.29 195.79Z" fill="#0082CE"/>
<path d="M113.31 170.8C147.855 170.8 175.86 157.986 175.86 142.18C175.86 126.374 147.855 113.56 113.31 113.56C78.7646 113.56 50.76 126.374 50.76 142.18C50.76 157.986 78.7646 170.8 113.31 170.8Z" fill="#0082CE"/>
<path opacity="0.8" d="M113.31 170.8C147.855 170.8 175.86 157.986 175.86 142.18C175.86 126.374 147.855 113.56 113.31 113.56C78.7646 113.56 50.76 126.374 50.76 142.18C50.76 157.986 78.7646 170.8 113.31 170.8Z" fill="white"/>
<path d="M113.67 141.45H112.67V149.75H113.67V141.45Z" fill="black"/>
<path d="M172.214 135.549L65.659 146.542L65.7616 147.537L172.316 136.544L172.214 135.549Z" fill="black"/>
<path d="M119 140.07C119 140.07 121.51 142.76 122.4 142.23C123.29 141.7 175.15 137.05 175.15 137.05L169.91 133.62C169.91 133.62 118.31 139.41 119 140.07Z" fill="#0082CE"/>
<path opacity="0.6" d="M119 140.07C119 140.07 121.51 142.76 122.4 142.23C123.29 141.7 175.15 137.05 175.15 137.05L169.91 133.62C169.91 133.62 118.31 139.41 119 140.07Z" fill="white"/>
<path d="M51.56 147.6C51.56 147.6 55.99 149.6 54.96 149.75C54.96 149.75 106.07 144.1 106.79 143.97L103.41 141.76C103.41 141.76 50.89 146.93 51.56 147.6Z" fill="#0082CE"/>
<path opacity="0.6" d="M51.56 147.6C51.56 147.6 55.99 149.6 54.96 149.75C54.96 149.75 106.07 144.1 106.79 143.97L103.41 141.76C103.41 141.76 50.89 146.93 51.56 147.6Z" fill="white"/>
<path d="M151.42 175.27L138.93 179.43C138.93 179.43 140.28 181.85 142.71 181.85C144.12 181.85 151.91 179.35 158.19 177.25L151.42 175.27Z" fill="#0082CE"/>
<path opacity="0.2" d="M151.42 175.27L138.93 179.43C138.93 179.43 140.28 181.85 142.71 181.85C144.12 181.85 151.91 179.35 158.19 177.25L151.42 175.27Z" fill="white"/>
<path d="M174.21 180.04L180.94 169.08H184.54L179.37 180.9L174.21 180.04Z" fill="#0082CE"/>
<path opacity="0.1" d="M174.21 180.04L180.94 169.08H184.54L179.37 180.9L174.21 180.04Z" fill="white"/>
<path d="M133.46 168.16L182.01 181.43L182.91 184.51L133.46 175.84V168.16Z" fill="#0082CE"/>
<path opacity="0.1" d="M133.46 173.03V175.84L182.91 184.51L182.67 183.68L133.46 173.03Z" fill="black"/>
<path d="M156.79 177L167.51 173.43C167.51 173.43 167.17 171.01 163.34 171.01H162.26L150.02 175.01L156.79 177Z" fill="#0082CE"/>
<g opacity="0.2">
<path d="M156.79 177L167.51 173.43C167.51 173.43 167.17 171.01 163.34 171.01H162.26L150.02 175.01L156.79 177Z" fill="white"/>
</g>
<path d="M174.21 182.97L179.81 194.63H183.51L179.37 183.56L174.21 182.97Z" fill="#0082CE"/>
<path d="M135.08 168.6C133.882 163.027 130.679 158.088 126.08 154.72C120.347 150.556 113.566 148.073 106.5 147.55C103.698 147.346 100.884 147.393 98.09 147.69C105.55 149.28 114.84 152.78 125.3 160.03C134.27 166.21 135.07 168.55 135.08 168.6Z" fill="#0082CE"/>
<path d="M68.53 160.71C67.73 163.91 70.53 166.8 73.21 168.71C84.6638 176.943 97.8871 182.378 111.82 184.58C115.827 185.411 119.946 185.553 124 185C127.187 184.478 130.16 183.06 132.57 180.91C105.23 163.18 82.66 157.1 72.57 156.35C70.8 157.39 69 158.72 68.53 160.71Z" fill="#0082CE"/>
<path d="M134.33 178.92C134.964 177.82 135.334 176.587 135.41 175.32C135.652 173.077 135.541 170.809 135.08 168.6C135.08 168.6 134.27 166.21 125.35 160.03C114.89 152.78 105.6 149.28 98.14 147.69C89.49 148.6 81.03 151.76 73.33 155.93L72.61 156.34C82.68 157.09 105.25 163.17 132.61 180.9C133.25 180.301 133.827 179.638 134.33 178.92Z" fill="#0082CE"/>
<path opacity="0.2" d="M135.08 168.6C133.882 163.027 130.679 158.088 126.08 154.72C120.347 150.556 113.566 148.073 106.5 147.55C103.698 147.346 100.884 147.393 98.09 147.69C105.55 149.28 114.09 150.76 124.59 158.01C133.56 164.19 135.07 168.55 135.08 168.6Z" fill="white"/>
<path opacity="0.1" d="M68.53 160.71C67.73 163.91 70.53 166.8 73.21 168.71C84.6638 176.943 97.8871 182.378 111.82 184.58C115.827 185.411 119.946 185.553 124 185C127.187 184.478 130.16 183.06 132.57 180.91C126.32 169.09 75.97 153.51 72.57 156.35C70.8 157.39 69 158.72 68.53 160.71Z" fill="black"/>
<path d="M79.83 186.25L78.89 185.91C80.6379 181.51 83.732 177.776 87.73 175.24L88.24 176.1C84.4578 178.536 81.5205 182.081 79.83 186.25Z" fill="#263238"/>
<path d="M95.9 192.33L94.9 192.15C95.57 188.5 100.63 180.92 100.9 180.6L101.73 181.15C101.63 181.23 96.52 188.88 95.9 192.33Z" fill="#263238"/>
<path d="M102.23 195.38C102.147 195.395 102.063 195.395 101.98 195.38L72.36 184.87C72.2404 184.828 72.1336 184.755 72.05 184.66L69.17 181.39C69.0374 181.241 68.9692 181.046 68.9805 180.848C68.9917 180.649 69.0815 180.463 69.23 180.33C69.3785 180.197 69.5736 180.129 69.7724 180.14C69.9712 180.152 70.1574 180.241 70.29 180.39L73 183.52L102.44 193.93C102.602 193.992 102.738 194.109 102.823 194.26C102.909 194.411 102.94 194.587 102.91 194.758C102.881 194.929 102.793 195.084 102.662 195.198C102.53 195.311 102.364 195.376 102.19 195.38H102.23Z" fill="#263238"/>
<path d="M102.69 182.62L101.75 182.27C104.13 175.82 103.75 173.88 103.75 173.86L104.75 173.59C104.74 173.8 105.19 175.84 102.69 182.62Z" fill="#263238"/>
<path d="M119.3 188.89L118.3 188.71C118.93 185.28 117.01 179.15 117 179.09L117.95 178.79C118 179.05 120 185.22 119.3 188.89Z" fill="#263238"/>
<path d="M126.18 192.17C126.097 192.184 126.013 192.184 125.93 192.17L95.15 181.25C95.0312 181.201 94.9252 181.126 94.84 181.03L92 177.77C91.9343 177.696 91.8839 177.609 91.8517 177.516C91.8194 177.422 91.8059 177.323 91.8119 177.224C91.818 177.125 91.8434 177.028 91.8868 176.939C91.9303 176.85 91.9908 176.771 92.065 176.705C92.1392 176.639 92.2256 176.589 92.3193 176.557C92.4129 176.524 92.5121 176.511 92.611 176.517C92.7098 176.523 92.8066 176.548 92.8956 176.592C92.9847 176.635 93.0643 176.696 93.13 176.77L95.88 179.89L126.47 190.7C126.639 190.757 126.782 190.873 126.873 191.027C126.964 191.18 126.998 191.361 126.968 191.537C126.938 191.712 126.846 191.872 126.709 191.986C126.572 192.1 126.398 192.162 126.22 192.16L126.18 192.17Z" fill="#263238"/>
<path opacity="0.7" d="M111.45 153.75C112.114 157.047 112.148 160.44 111.55 163.75L111.45 164.3C109.566 163.41 107.6 162.703 105.58 162.19C107.17 157.19 106.43 154.36 106.33 151.64C109.3 152.75 111.45 153.75 111.45 153.75Z" fill="black"/>
<path opacity="0.7" d="M98.07 149.1L95.68 154.64C90.6252 153.222 85.4 152.501 80.15 152.5C83.951 150.967 87.8578 149.71 91.84 148.74C93.9194 148.433 96.0397 148.556 98.07 149.1Z" fill="black"/>
<path opacity="0.7" d="M105.33 151.26C105.26 153.32 105.14 155.93 104.99 157.55C102.63 156.69 99.76 155.74 96.65 154.9C97.5 153.1 98.58 150.51 99.07 149.32C101.189 149.857 103.279 150.505 105.33 151.26Z" fill="black"/>
<path d="M218.75 217.26C219.06 217.15 219.44 217.42 219.62 217.9C219.8 218.38 219.71 218.83 219.38 218.96C219.05 219.09 218.7 218.78 218.53 218.31C218.36 217.84 218.45 217.37 218.75 217.26Z" fill="#263238"/>
<path d="M220.67 223.47C221.083 223.426 221.481 223.292 221.837 223.078C222.193 222.864 222.498 222.574 222.73 222.23C221.366 221.352 220.128 220.292 219.05 219.08L220.67 223.47Z" fill="#FF5652"/>
<path d="M215.69 216.32C215.627 216.277 215.583 216.211 215.568 216.136C215.553 216.062 215.568 215.984 215.61 215.92C215.858 215.531 216.197 215.207 216.598 214.977C216.998 214.747 217.449 214.618 217.91 214.6H218C218.075 214.612 218.143 214.654 218.188 214.716C218.233 214.777 218.252 214.854 218.24 214.93C218.23 215.005 218.191 215.074 218.131 215.12C218.071 215.167 217.995 215.189 217.92 215.18C217.556 215.205 217.202 215.314 216.888 215.5C216.574 215.686 216.307 215.943 216.11 216.25C216.071 216.297 216.019 216.332 215.96 216.35C215.916 216.366 215.868 216.371 215.822 216.366C215.775 216.361 215.73 216.345 215.69 216.32Z" fill="#263238"/>
<path d="M217.12 231.46C217.12 235.06 217.99 238.68 223.12 238.56C223.12 238.56 228.91 241.74 220.04 244.08C211.97 246.21 209.62 242.08 209.62 242.08C211.9 238.38 208.76 232.08 206.76 228.01L217.12 231.46Z" fill="#FF8A7B"/>
<path d="M221.54 225.26C221.687 226.469 221.573 227.695 221.206 228.856C220.838 230.017 220.226 231.086 219.41 231.99C218.8 232.679 218.076 233.257 217.27 233.7C216.202 234.288 215.007 234.609 213.788 234.635C212.569 234.662 211.362 234.392 210.27 233.85C206.27 231.99 205.15 228.59 202.71 223.02C202.118 221.73 201.867 220.311 201.982 218.896C202.096 217.482 202.571 216.121 203.361 214.943C204.152 213.765 205.232 212.809 206.498 212.168C207.763 211.527 209.172 211.221 210.59 211.28C217 211.51 220.88 219.69 221.54 225.26Z" fill="#FF8A7B"/>
<path opacity="0.3" d="M219.41 232C218.8 232.689 218.076 233.267 217.27 233.71C217.11 232.84 216.78 230.71 216.63 230.43C217.253 231.021 217.983 231.49 218.78 231.81C219 231.88 219.2 231.92 219.41 232Z" fill="black"/>
<path d="M199.87 214.79C198.441 218.099 198.274 221.816 199.4 225.24C200.34 228.44 207.83 239.49 216.47 229.74C214.619 226.612 213.757 222.997 214 219.37C217.77 222.66 214.28 215.67 214.37 214.45C214.52 212.52 217.01 219.35 217.37 217.45C218.37 212.45 213.91 209.08 212.37 208.4C210.44 207.52 203.56 207 199.87 214.79Z" fill="#263238"/>
<path d="M212.5 218.41C214.32 218.41 215.92 220.65 216.44 222.19C217.03 223.9 216.18 225.35 214.33 224.62C212.926 224.05 211.749 223.035 210.98 221.73C210.08 220.15 210.67 218.41 212.5 218.41Z" fill="#FF8A7B"/>
<path d="M221.59 225.59C221.096 225.489 220.661 225.198 220.38 224.78V224.73C220.37 224.708 220.365 224.684 220.365 224.659C220.365 224.635 220.369 224.611 220.379 224.589C220.388 224.566 220.402 224.546 220.419 224.529C220.437 224.512 220.457 224.499 220.48 224.49C220.503 224.479 220.528 224.472 220.553 224.471C220.578 224.47 220.604 224.474 220.627 224.484C220.651 224.493 220.672 224.508 220.69 224.526C220.708 224.544 220.721 224.566 220.73 224.59C220.933 224.886 221.234 225.102 221.58 225.2L221.59 225.59Z" fill="#263238"/>
<path d="M197.15 226.37C197.819 227.831 198.942 229.037 200.35 229.81C201.273 230.2 202.274 230.372 203.275 230.313C204.275 230.254 205.249 229.966 206.12 229.47C207.86 228.472 209.361 227.107 210.52 225.47C212.128 223.355 213.471 221.051 214.52 218.61C215.131 217.359 215.492 216 215.58 214.61C215.568 213.272 215.188 211.963 214.483 210.825C213.777 209.688 212.773 208.766 211.58 208.16C210.376 207.577 209.061 207.26 207.723 207.231C206.386 207.202 205.058 207.461 203.83 207.99C202.117 208.677 200.568 209.717 199.284 211.043C198.001 212.37 197.011 213.952 196.381 215.687C195.75 217.421 195.493 219.269 195.625 221.11C195.758 222.951 196.277 224.744 197.15 226.37Z" fill="#0082CE"/>
<path d="M198.77 236.92C198.96 237.57 199.4 239.4 200.7 239.53C200.7 239.53 199.97 235.22 208.22 235.41C210.63 230.84 210.96 228.2 212.15 223.17C209.91 222.399 207.479 222.378 205.226 223.11C202.972 223.843 201.019 225.289 199.66 227.23C198.992 228.176 198.591 229.285 198.5 230.44C198.243 232.601 198.334 234.788 198.77 236.92Z" fill="#0082CE"/>
<g opacity="0.5">
<path d="M198.77 236.92C198.96 237.57 199.4 239.4 200.7 239.53C200.7 239.53 199.97 235.22 208.22 235.41C210.63 230.84 210.96 228.2 212.15 223.17C209.91 222.399 207.479 222.378 205.226 223.11C202.972 223.843 201.019 225.289 199.66 227.23C198.992 228.176 198.591 229.285 198.5 230.44C198.243 232.601 198.334 234.788 198.77 236.92Z" fill="black"/>
</g>
<path d="M240.22 254.2L240.62 255.33C243.98 255.98 246.62 253.2 246.62 253.2L242.8 248.6L240.86 250.74C240.452 251.206 240.177 251.773 240.064 252.382C239.951 252.991 240.005 253.619 240.22 254.2Z" fill="#FF8A7B"/>
<path d="M242.86 248.6L246.67 253.2L249.24 251.4L247.51 246.5L242.86 248.6Z" fill="#FF8A7B"/>
<path d="M242 254.12C241.634 253.351 240.986 252.753 240.19 252.45C238.68 255.21 226.77 265.85 225.95 267.12C225.95 267.12 214.08 240 205.8 240.31C192.72 242.03 219.06 270.95 220.14 272.11C228.65 283.11 233.71 270.77 234.14 270.43C237.009 266.155 239.633 261.722 242 257.15C242.234 256.679 242.356 256.161 242.356 255.635C242.356 255.109 242.234 254.591 242 254.12ZM242 254.12C241.634 253.351 240.986 252.753 240.19 252.45C238.68 255.21 226.77 265.85 225.95 267.12C225.95 267.12 214.08 240 205.8 240.31C192.72 242.03 219.06 270.95 220.14 272.11C228.65 283.11 233.71 270.77 234.14 270.43C237.009 266.155 239.633 261.722 242 257.15C242.234 256.679 242.356 256.161 242.356 255.635C242.356 255.109 242.234 254.591 242 254.12ZM242 254.12C241.634 253.351 240.986 252.753 240.19 252.45C238.68 255.21 226.77 265.85 225.95 267.12C225.95 267.12 214.08 240 205.8 240.31C192.72 242.03 219.06 270.95 220.14 272.11C228.65 283.11 233.71 270.77 234.14 270.43C237.009 266.155 239.633 261.722 242 257.15C242.234 256.679 242.356 256.161 242.356 255.635C242.356 255.109 242.234 254.591 242 254.12Z" fill="#0082CE"/>
<path opacity="0.2" d="M242 254.12C241.634 253.351 240.986 252.753 240.19 252.45C238.68 255.21 226.77 265.85 225.95 267.12C225.95 267.12 214.08 240 205.8 240.31C192.72 242.03 219.06 270.95 220.14 272.11C228.65 283.11 233.71 270.77 234.14 270.43C237.009 266.155 239.633 261.722 242 257.15C242.234 256.679 242.356 256.161 242.356 255.635C242.356 255.109 242.234 254.591 242 254.12ZM242 254.12C241.634 253.351 240.986 252.753 240.19 252.45C238.68 255.21 226.77 265.85 225.95 267.12C225.95 267.12 214.08 240 205.8 240.31C192.72 242.03 219.06 270.95 220.14 272.11C228.65 283.11 233.71 270.77 234.14 270.43C237.009 266.155 239.633 261.722 242 257.15C242.234 256.679 242.356 256.161 242.356 255.635C242.356 255.109 242.234 254.591 242 254.12ZM242 254.12C241.634 253.351 240.986 252.753 240.19 252.45C238.68 255.21 226.77 265.85 225.95 267.12C225.95 267.12 214.08 240 205.8 240.31C192.72 242.03 219.06 270.95 220.14 272.11C228.65 283.11 233.71 270.77 234.14 270.43C237.009 266.155 239.633 261.722 242 257.15C242.234 256.679 242.356 256.161 242.356 255.635C242.356 255.109 242.234 254.591 242 254.12Z" fill="black"/>
<path d="M223 241.33C223 241.33 223.16 237.33 220.43 236.28C217.7 235.23 210.48 236.68 208.99 237.13C207.5 237.58 208.2 239 208.72 240.31L223 241.33Z" fill="#0082CE"/>
<path opacity="0.5" d="M223 241.33C223 241.33 223.16 237.33 220.43 236.28C217.7 235.23 210.48 236.68 208.99 237.13C207.5 237.58 208.2 239 208.72 240.31L223 241.33Z" fill="white"/>
<path opacity="0.3" d="M210.67 254.52C209.365 256.924 207.94 259.26 206.4 261.52L205.92 261.2L210.58 248.2L210.67 254.52Z" fill="black"/>
<path d="M213.11 414.94C213.097 414.921 213.091 414.898 213.091 414.875C213.091 414.852 213.097 414.829 213.11 414.81C213.119 414.786 213.134 414.764 213.153 414.746C213.172 414.729 213.195 414.717 213.22 414.71C213.28 414.71 215.1 414.47 215.73 415C215.798 415.054 215.853 415.122 215.891 415.2C215.929 415.278 215.949 415.363 215.95 415.45C215.95 415.79 215.81 415.95 215.68 416C215.451 416.049 215.214 416.049 214.985 416.001C214.756 415.952 214.54 415.857 214.35 415.72C213.908 415.509 213.492 415.247 213.11 414.94ZM213.52 414.94C214.19 415.44 215.18 415.94 215.52 415.77C215.52 415.77 215.65 415.7 215.64 415.46C215.64 415.41 215.628 415.36 215.605 415.315C215.583 415.27 215.55 415.231 215.51 415.2C215.467 415.164 215.42 415.134 215.37 415.11C214.773 414.92 214.142 414.862 213.52 414.94Z" fill="#0082CE"/>
<path d="M213.07 414.88C213.06 414.858 213.055 414.834 213.055 414.81C213.055 414.786 213.06 414.762 213.07 414.74C213.07 414.68 213.94 413.34 214.74 413.17C214.837 413.146 214.939 413.143 215.037 413.162C215.136 413.181 215.229 413.221 215.31 413.28C215.394 413.324 215.461 413.396 215.499 413.483C215.537 413.57 215.545 413.668 215.52 413.76C215.34 414.35 213.83 414.92 213.19 414.94H213.14C213.112 414.926 213.088 414.906 213.07 414.88ZM214.8 413.44C214.235 413.704 213.767 414.137 213.46 414.68C214.15 414.56 215.18 414.07 215.28 413.68C215.28 413.68 215.28 413.58 215.17 413.49C215.115 413.456 215.054 413.433 214.99 413.425C214.927 413.416 214.862 413.421 214.8 413.44Z" fill="#0082CE"/>
<path d="M210.02 403.46L215.38 403.75L212.53 416.42L207.17 416.13L210.02 403.46Z" fill="#FF8A7B"/>
<path d="M213.75 414.84C214.4 416.48 216.81 419.33 220.13 422.07C220.87 422.68 219.58 424.59 217.54 423.51C215.5 422.43 210.96 419.75 209.54 419C207.14 417.77 206.13 417.39 204.25 416.46C204.193 416.436 204.14 416.406 204.09 416.37C203.927 416.234 203.824 416.039 203.804 415.827C203.783 415.616 203.847 415.405 203.98 415.24L207.14 411.42C207.211 411.337 207.308 411.281 207.416 411.261C207.523 411.241 207.634 411.259 207.73 411.31L213.18 414.1C213.453 414.27 213.655 414.533 213.75 414.84Z" fill="#263238"/>
<path opacity="0.2" d="M208.55 409.99L213.8 410.77L215.38 403.75L210.02 403.46L208.55 409.99Z" fill="black"/>
<path d="M226 285.51C226 285.51 227.13 326.17 226.84 342.13C226.52 359.61 217.43 405.47 217.43 405.47L207.53 404.31C207.53 404.31 212.32 363.83 211.11 346.81C209.77 328.39 200.39 297.63 206.68 287.81L214.34 286.9L226 285.51Z" fill="#0082CE"/>
<path opacity="0.5" d="M226 285.51C226 285.51 226.55 305.08 226.78 322.4C226.89 330.04 226.93 337.25 226.84 342.13C226.52 359.61 217.22 405.71 217.22 405.71L207.31 404.55C207.31 404.55 212.31 363.83 211.11 346.81C209.77 328.39 200.66 299 206.68 287.81L214.34 286.9L226 285.51Z" fill="black"/>
<path d="M207.36 402.09L206.74 405.46L217.88 406.83L219.37 403.16L207.36 402.09Z" fill="#263238"/>
<path opacity="0.3" d="M225.75 299.33C226.3 312.71 226.99 331.58 226.83 341.5C223.32 328.21 217.4 302.21 224.14 299.45C224.648 299.231 225.215 299.189 225.75 299.33Z" fill="black"/>
<path d="M267.2 416.81C267.174 416.799 267.151 416.783 267.131 416.762C267.112 416.742 267.098 416.717 267.09 416.69C267.085 416.663 267.089 416.636 267.099 416.611C267.11 416.586 267.128 416.565 267.15 416.55C267.23 416.49 269.15 415.3 270.03 415.55C270.12 415.575 270.203 415.618 270.275 415.676C270.347 415.735 270.407 415.808 270.45 415.89C270.509 415.981 270.54 416.087 270.54 416.195C270.54 416.303 270.509 416.409 270.45 416.5C270.22 416.85 269.55 416.95 268.85 416.95C268.297 416.952 267.745 416.906 267.2 416.81ZM269.72 415.81C268.958 415.905 268.225 416.161 267.57 416.56C268.57 416.71 269.97 416.7 270.22 416.32C270.28 416.27 270.31 416.18 270.22 416C270.193 415.951 270.156 415.909 270.111 415.876C270.066 415.843 270.015 415.821 269.96 415.81H269.72Z" fill="#0082CE"/>
<path d="M267.11 416.79C267.09 416.775 267.075 416.755 267.066 416.732C267.057 416.709 267.055 416.684 267.06 416.66C267.096 415.828 267.382 415.027 267.88 414.36C267.977 414.267 268.094 414.196 268.222 414.153C268.35 414.109 268.486 414.095 268.62 414.11C268.97 414.11 269.1 414.35 269.1 414.51C269.21 415.18 267.92 416.51 267.27 416.8H267.21C267.176 416.806 267.142 416.803 267.11 416.79ZM268.51 414.38C268.363 414.388 268.222 414.444 268.11 414.54C267.696 415.07 267.446 415.71 267.39 416.38C268.04 415.94 268.91 414.92 268.85 414.52C268.85 414.52 268.85 414.36 268.6 414.36H268.51V414.38Z" fill="#0082CE"/>
<path d="M257.21 404.9L262.31 403L266.81 416.91H261.09L257.21 404.9Z" fill="#FF8A7B"/>
<path d="M268 416.44C271.71 418.92 273.84 419.03 278.12 420.03C279.05 420.26 278.45 422.74 276.22 422.74C272.52 422.74 271.15 422.57 267.99 422.57C265.29 422.57 262.19 422.76 260.05 422.76H259.87C259.661 422.699 259.483 422.563 259.368 422.379C259.254 422.194 259.212 421.974 259.25 421.76L260.25 416.45C260.268 416.339 260.324 416.238 260.407 416.164C260.491 416.089 260.598 416.045 260.71 416.04H266.65C267.13 416.032 267.601 416.172 268 416.44Z" fill="#263238"/>
<path opacity="0.2" d="M257.2 404.9L259.39 411.65L264.49 409.75L262.31 403L257.2 404.9Z" fill="black"/>
<path d="M235.26 284.41C235.26 284.41 248.02 321.94 251.69 338.16C255.49 355.02 265.74 406.16 265.74 406.16L257.09 409.37C257.09 409.37 240.66 359.97 235.94 343.67C234.33 338.12 231.59 330.67 228.58 322.99C221.94 306.09 214 288.31 214 288.31L226 285.51L235.26 284.41Z" fill="#0082CE"/>
<path opacity="0.5" d="M235.26 284.41C235.26 284.41 248.02 321.94 251.69 338.16C255.49 355.02 265.74 406.16 265.74 406.16L257.09 409.37C257.09 409.37 240.66 359.97 235.94 343.67C234.33 338.12 231.59 330.67 228.58 322.99C221.94 306.09 214 288.31 214 288.31L226 285.51L235.26 284.41Z" fill="black"/>
<path d="M255 407.82L256.48 410.92L267 407C267 407 266.2 403.21 266.16 403.23L255 407.82Z" fill="#263238"/>
<path d="M235.26 284.41L227.94 287.73C225.683 288.757 223.282 289.432 220.82 289.73L219.69 289.86C215.255 290.411 210.754 289.718 206.69 287.86C205.76 284.09 204.69 271.69 200.03 253.66C197.35 243.27 203.68 239.5 208.8 238.99L208.93 238.94C213.02 238.535 217.13 238.365 221.24 238.43C223.591 238.557 225.93 238.848 228.24 239.3C228.732 239.38 229.195 239.58 229.59 239.884C229.985 240.188 230.297 240.585 230.5 241.04C232.07 244.51 230.86 264.77 235.26 284.41Z" fill="#0082CE"/>
<path opacity="0.3" d="M226.12 248.14C226.42 253.37 228.76 260.52 232.27 263.4C232.05 261.01 231.56 249.11 231.44 247.01L226.12 248.14Z" fill="black"/>
<path d="M258.62 249.84L257.91 244.02L245.59 246.62L246.29 252.44L258.62 249.84Z" fill="#0082CE"/>
<path d="M245.74 253.59L259.53 250.68C259.692 250.644 259.834 250.55 259.93 250.415C260.026 250.28 260.069 250.114 260.05 249.95V249.61C260.068 249.773 260.025 249.937 259.929 250.071C259.833 250.204 259.691 250.296 259.53 250.33L245.74 253.24C245.65 253.259 245.557 253.258 245.466 253.239C245.376 253.22 245.291 253.183 245.216 253.13C245.141 253.076 245.077 253.008 245.03 252.928C244.982 252.849 244.952 252.761 244.94 252.67V253.01C244.951 253.102 244.98 253.191 245.027 253.272C245.074 253.352 245.137 253.421 245.212 253.476C245.288 253.531 245.373 253.569 245.464 253.589C245.555 253.608 245.649 253.609 245.74 253.59Z" fill="#0082CE"/>
<path opacity="0.3" d="M245.74 253.59L259.53 250.68C259.692 250.644 259.834 250.55 259.93 250.415C260.026 250.28 260.069 250.114 260.05 249.95V249.61C260.068 249.773 260.025 249.937 259.929 250.071C259.833 250.204 259.691 250.296 259.53 250.33L245.74 253.24C245.65 253.259 245.557 253.258 245.466 253.239C245.376 253.22 245.291 253.183 245.216 253.13C245.141 253.076 245.077 253.008 245.03 252.928C244.982 252.849 244.952 252.761 244.94 252.67V253.01C244.951 253.102 244.98 253.191 245.027 253.272C245.074 253.352 245.137 253.421 245.212 253.476C245.288 253.531 245.373 253.569 245.464 253.589C245.555 253.608 245.649 253.609 245.74 253.59Z" fill="black"/>
<path d="M245.7 253.24L259.49 250.33C259.651 250.296 259.793 250.204 259.889 250.071C259.985 249.937 260.028 249.773 260.01 249.61L259.31 243.79C259.297 243.699 259.265 243.613 259.217 243.535C259.169 243.457 259.106 243.389 259.031 243.337C258.956 243.285 258.871 243.248 258.782 243.23C258.692 243.211 258.6 243.211 258.51 243.23L244.72 246.13C244.558 246.166 244.416 246.26 244.32 246.395C244.224 246.53 244.181 246.696 244.2 246.86L244.9 252.67C244.912 252.761 244.942 252.849 244.99 252.929C245.037 253.008 245.101 253.076 245.176 253.13C245.251 253.183 245.336 253.22 245.426 253.239C245.517 253.258 245.61 253.259 245.7 253.24ZM246.29 252.44L245.59 246.62L257.91 244.02L258.62 249.84L246.29 252.44Z" fill="#0082CE"/>
<path d="M246.29 252.44L258.62 249.84L257.91 244.02L245.59 246.62L246.29 252.44Z" fill="#0082CE"/>
<path opacity="0.7" d="M246.29 252.44L258.62 249.84L257.91 244.02L245.59 246.62L246.29 252.44Z" fill="white"/>
<path d="M254.17 252.08L254.57 253.21C257.93 253.86 260.62 251.08 260.62 251.08L256.8 246.48L254.86 248.62C254.443 249.081 254.159 249.646 254.038 250.255C253.916 250.864 253.962 251.495 254.17 252.08Z" fill="#FF8A7B"/>
<path d="M256.81 246.48L260.62 251.08L261.4 248.93L259.5 244.76L256.81 246.48Z" fill="#FF8A7B"/>
<path d="M255.72 251.53C255.348 250.766 254.702 250.169 253.91 249.86C252.4 252.62 247.24 264.44 246.56 263.09C245.65 261.27 234.61 235.95 228.12 239.74C215 241.46 245.46 274.88 245.65 275C246.129 275.239 246.655 275.371 247.191 275.385C247.727 275.398 248.259 275.294 248.75 275.08C249.224 274.888 249.661 274.614 250.04 274.27C250.502 273.855 250.914 273.389 251.27 272.88C251.559 272.497 251.823 272.096 252.06 271.68C252.41 271.09 253.01 270.81 255.73 254.59C256.057 253.596 256.053 252.522 255.72 251.53Z" fill="#0082CE"/>
</svg>
