<svg width="395" height="327" viewBox="0 0 395 327" fill="none" xmlns="http://www.w3.org/2000/svg">
<g clip-path="url(#clip0_5_136)">
<path d="M301.372 319.043L128.636 319.174C128.224 319.174 127.89 318.947 127.89 318.666C127.89 318.386 128.224 318.159 128.636 318.159L301.372 318.028C301.784 318.028 302.118 318.255 302.118 318.535C302.118 318.816 301.784 319.043 301.372 319.043Z" fill="#CACACA"/>
<path d="M172.032 79.7318C171.485 79.2597 170.85 78.8991 170.165 78.6704C168.631 78.1957 167.02 78.0206 165.419 78.1544C164.245 78.2206 163.079 78.3831 161.931 78.6402L108.351 93.7927C107.339 94.0768 106.344 94.4077 105.367 94.7856C101.913 93.4343 92.1488 89.5261 91.0785 88.1239L86.8804 89.3513L93.8814 99.7977C93.7042 99.875 93.5546 100.004 93.452 100.168C93.3495 100.331 93.2988 100.522 93.3066 100.715C93.3145 100.908 93.3805 101.095 93.496 101.25C93.6115 101.404 93.7712 101.521 93.954 101.583C102.025 104.354 114.215 100.676 114.215 100.676L161.031 87.3054C161.031 87.3054 175.16 82.5277 172.032 79.7318Z" fill="#090814"/>
<path d="M110.332 97.0973C110.547 97.0266 110.625 96.6794 110.507 96.3217C110.39 95.964 110.12 95.7313 109.905 95.802C109.69 95.8727 109.612 96.2199 109.73 96.5776C109.847 96.9353 110.117 97.168 110.332 97.0973Z" fill="#F2F2F2"/>
<path d="M111.963 96.5596C112.177 96.4889 112.256 96.1417 112.138 95.784C112.02 95.4263 111.751 95.1937 111.536 95.2644C111.321 95.335 111.243 95.6823 111.36 96.04C111.478 96.3976 111.748 96.6303 111.963 96.5596Z" fill="#F2F2F2"/>
<path d="M115.075 95.5352C115.29 95.4645 115.369 95.1173 115.251 94.7596C115.133 94.4019 114.863 94.1692 114.649 94.2399C114.434 94.3106 114.355 94.6578 114.473 95.0155C114.591 95.3732 114.86 95.6059 115.075 95.5352Z" fill="#F2F2F2"/>
<path d="M127.013 92.0718C127.227 92.0011 127.306 91.6539 127.188 91.2962C127.071 90.9385 126.801 90.7059 126.586 90.7765C126.371 90.8472 126.293 91.1945 126.41 91.5521C126.528 91.9098 126.798 92.1425 127.013 92.0718Z" fill="#F2F2F2"/>
<path d="M128.624 91.5396C128.839 91.4689 128.918 91.1217 128.8 90.764C128.682 90.4063 128.413 90.1736 128.198 90.2443C127.983 90.315 127.904 90.6622 128.022 91.0199C128.14 91.3776 128.409 91.6103 128.624 91.5396Z" fill="#F2F2F2"/>
<path d="M130.207 91.0202C130.422 90.9495 130.501 90.6023 130.383 90.2446C130.265 89.8869 129.995 89.6543 129.781 89.7249C129.566 89.7956 129.487 90.1429 129.605 90.5005C129.723 90.8582 129.992 91.0909 130.207 91.0202Z" fill="#F2F2F2"/>
<path d="M131.637 90.5492C131.852 90.4785 131.93 90.1313 131.813 89.7736C131.695 89.4159 131.425 89.1833 131.211 89.2539C130.996 89.3246 130.917 89.6719 131.035 90.0295C131.153 90.3872 131.422 90.6199 131.637 90.5492Z" fill="#F2F2F2"/>
<path d="M133.177 90.0427C133.391 89.972 133.47 89.6247 133.352 89.2671C133.234 88.9094 132.965 88.6767 132.75 88.7474C132.535 88.8181 132.457 89.1653 132.574 89.523C132.692 89.8807 132.962 90.1133 133.177 90.0427Z" fill="#F2F2F2"/>
<path d="M134.784 89.5114C134.999 89.4407 135.078 89.0935 134.96 88.7358C134.842 88.3781 134.572 88.1455 134.358 88.2162C134.143 88.2868 134.064 88.6341 134.182 88.9918C134.3 89.3494 134.569 89.5821 134.784 89.5114Z" fill="#F2F2F2"/>
<path d="M136.212 89.0414C136.426 88.9707 136.505 88.6235 136.387 88.2658C136.269 87.9081 136 87.6755 135.785 87.7461C135.57 87.8168 135.492 88.1641 135.609 88.5217C135.727 88.8794 135.997 89.1121 136.212 89.0414Z" fill="#F2F2F2"/>
<path opacity="0.1" d="M144.212 86.9772C144.427 86.9065 144.506 86.5593 144.388 86.2016C144.27 85.8439 144 85.6113 143.786 85.6819C143.571 85.7526 143.492 86.0999 143.61 86.4575C143.728 86.8152 143.997 87.0479 144.212 86.9772Z" fill="#0082CE"/>
<path opacity="0.1" d="M147.33 85.9523C147.545 85.8816 147.623 85.5343 147.505 85.1767C147.388 84.819 147.118 84.5863 146.903 84.657C146.688 84.7277 146.61 85.0749 146.728 85.4326C146.845 85.7903 147.115 86.0229 147.33 85.9523Z" fill="#0082CE"/>
<path opacity="0.1" d="M148.894 85.4378C149.109 85.3671 149.187 85.0199 149.07 84.6622C148.952 84.3045 148.682 84.0719 148.467 84.1426C148.253 84.2132 148.174 84.5605 148.292 84.9182C148.409 85.2758 148.679 85.5085 148.894 85.4378Z" fill="#0082CE"/>
<path opacity="0.1" d="M150.414 84.9377C150.629 84.867 150.708 84.5198 150.59 84.1621C150.472 83.8044 150.202 83.5717 149.988 83.6424C149.773 83.7131 149.694 84.0603 149.812 84.418C149.93 84.7757 150.199 85.0084 150.414 84.9377Z" fill="#0082CE"/>
<path opacity="0.1" d="M151.907 84.4435C152.121 84.3728 152.2 84.0256 152.082 83.6679C151.965 83.3102 151.695 83.0775 151.48 83.1482C151.265 83.2189 151.187 83.5661 151.305 83.9238C151.422 84.2815 151.692 84.5142 151.907 84.4435Z" fill="#0082CE"/>
<path opacity="0.1" d="M153.601 83.8905C153.816 83.8199 153.895 83.4726 153.777 83.1149C153.659 82.7572 153.389 82.5246 153.175 82.5953C152.96 82.6659 152.881 83.0132 152.999 83.3709C153.117 83.7285 153.386 83.9612 153.601 83.8905Z" fill="#0082CE"/>
<path opacity="0.1" d="M145.82 86.4465C146.035 86.3758 146.114 86.0285 145.996 85.6709C145.878 85.3132 145.609 85.0805 145.394 85.1512C145.179 85.2219 145.1 85.5691 145.218 85.9268C145.336 86.2845 145.606 86.5171 145.82 86.4465Z" fill="#0082CE"/>
<path d="M113.641 96.0072C113.856 95.9365 113.934 95.5892 113.816 95.2316C113.699 94.8739 113.429 94.6412 113.214 94.7119C113 94.7826 112.921 95.1298 113.039 95.4875C113.156 95.8452 113.426 96.0778 113.641 96.0072Z" fill="#F2F2F2"/>
<path d="M138.921 86.9171L137.456 87.2792L138.087 89.8324L139.553 89.4703L138.921 86.9171Z" fill="#F2F2F2"/>
<path opacity="0.1" d="M156.185 81.9736L154.719 82.3357L155.35 84.8889L156.816 84.5268L156.185 81.9736Z" fill="#0082CE"/>
<path opacity="0.1" d="M163.661 78.777L161.716 79.2885L162.688 80.7548L165.571 80.0389L163.661 78.777Z" fill="#0082CE"/>
<path opacity="0.1" d="M170.155 78.6709L165.951 79.7664L164.356 78.779L165.418 78.1569C167.015 78.0235 168.623 78.198 170.155 78.6709Z" fill="#0082CE"/>
<path d="M86.8828 89.3172L93.8838 99.7977L105.319 94.7303C105.319 94.7303 92.3789 89.7932 91.0824 88.0899L86.8828 89.3172Z" fill="#090814"/>
<path d="M137.673 90.8902L119.198 95.8767L118.107 98.0589L137.673 90.8902Z" fill="#F2F2F2"/>
<path d="M321.126 37.7881H320.563C320.76 37.6722 320.926 37.5098 321.045 37.3151C321.165 37.1205 321.235 36.8994 321.249 36.6714C321.249 35.7891 320.171 35.0688 318.849 35.0688H302.046C300.724 35.0688 299.645 35.7891 299.645 36.6714C299.645 37.5492 300.724 38.2695 302.046 38.2695H302.604C302.408 38.3856 302.243 38.5482 302.124 38.7429C302.005 38.9376 301.936 39.1585 301.922 39.3863C301.922 40.1407 302.706 40.7716 303.756 40.942H298.915C297.598 40.942 296.519 41.6623 296.519 42.5445C296.519 43.4268 297.598 44.1427 298.915 44.1427H315.719C317.036 44.1427 318.119 43.4224 318.119 42.5445C318.119 41.7946 317.329 41.1592 316.281 40.9889H321.122C322.439 40.9889 323.518 40.2685 323.518 39.3863C323.518 38.504 322.444 37.7881 321.126 37.7881Z" fill="#F2F2F2"/>
<path d="M138.995 53.0295H138.432C138.629 52.9139 138.795 52.7516 138.915 52.5568C139.035 52.3621 139.105 52.1409 139.119 51.9127C139.119 51.0349 138.04 50.3101 136.718 50.3101H119.915C118.594 50.3101 117.515 51.0349 117.515 51.9127C117.515 52.795 118.594 53.5153 119.915 53.5153H120.474C120.277 53.6309 120.111 53.7932 119.991 53.988C119.871 54.1827 119.801 54.4039 119.787 54.6321C119.787 55.382 120.578 56.0145 121.625 56.1833H116.785C115.467 56.1833 114.389 56.9036 114.389 57.7859C114.389 58.6681 115.467 59.3885 116.785 59.3885H133.593C134.911 59.3885 135.989 58.6681 135.989 57.7859C135.989 57.0359 135.205 56.4005 134.156 56.2302H138.996C140.314 56.2302 141.392 55.5099 141.392 54.6321C141.392 53.7542 140.313 53.0295 138.995 53.0295Z" fill="#F2F2F2"/>
<path d="M346.901 118.266H346.342C346.539 118.15 346.705 117.988 346.825 117.793C346.944 117.599 347.014 117.377 347.028 117.149C347.028 116.267 345.945 115.547 344.628 115.547H327.82C326.503 115.547 325.424 116.267 325.424 117.149C325.424 118.031 326.503 118.752 327.82 118.752H328.383C328.186 118.867 328.019 119.029 327.9 119.224C327.78 119.419 327.71 119.64 327.697 119.869C327.697 120.618 328.487 121.251 329.535 121.42H324.694C323.377 121.42 322.298 122.14 322.298 123.022C322.298 123.905 323.377 124.625 324.694 124.625H341.502C342.82 124.625 343.899 123.905 343.899 123.022C343.899 122.272 343.114 121.637 342.065 121.467H346.901C348.222 121.467 349.301 120.746 349.301 119.869C349.301 118.991 348.222 118.266 346.901 118.266Z" fill="#F2F2F2"/>
<path d="M229.954 52.1472C228.598 52.9441 228.555 56.3497 228.764 59.0819C228.912 61.0809 229.191 62.7176 229.191 62.7176L220.367 84.156C220.367 84.156 217.096 68.8806 217.045 62.0609C217.041 61.5229 217.123 60.9878 217.288 60.4756C218.847 55.5612 227.494 52.8162 229.954 52.1472Z" fill="#090814"/>
<path d="M230.606 51.9641C230.606 51.9641 230.368 52.0194 229.954 52.1344C230.152 52.0203 230.377 51.9615 230.606 51.9641Z" fill="#090814"/>
<path d="M227.551 312.96L223.999 315.518C223.999 315.518 221.795 315.518 221.795 317.508C221.795 319.499 216.397 321.485 216.397 321.485C216.397 321.485 208.364 323.756 202.182 321.485C200.178 320.748 199.564 319.486 199.798 317.948C200.289 314.739 204.49 310.353 207.511 307.136C209.554 304.966 210.496 302.089 210.897 299.6C211.192 297.819 211.272 296.009 211.135 294.208L224.139 293.284C223.395 295.245 223.395 297.412 224.139 299.374C224.424 300.076 224.807 300.733 225.278 301.326C226.864 303.338 227.41 306.496 227.563 308.998C227.652 310.318 227.648 311.642 227.55 312.962L227.551 312.96Z" fill="#090814"/>
<path d="M254.27 318.855C254.27 318.855 253.277 321.839 243.964 322.836C234.652 323.833 235.987 316.937 235.987 316.937C235.987 316.937 235.94 316.74 235.88 316.387C235.475 314.056 235.464 311.673 235.846 309.338C236.17 307.522 235.888 304.372 235.483 301.488C235.006 298.052 234.353 294.988 234.353 294.988L248.782 296.053C248.782 296.053 249.033 298.99 249.177 301.957C249.224 302.881 249.263 303.806 249.276 304.65C249.343 305.931 249.775 307.166 250.521 308.209C252.229 310.728 253.402 313.572 253.966 316.562C254.091 317.233 254.179 317.911 254.23 318.591C254.261 318.774 254.27 318.855 254.27 318.855Z" fill="#090814"/>
<path d="M254.27 318.856C254.27 318.856 253.277 321.839 243.965 322.837C234.652 323.834 235.987 316.938 235.987 316.938C235.987 316.938 235.94 316.74 235.88 316.388C236.307 316.609 236.671 316.814 236.836 316.908C237.689 317.406 238.452 318.092 239.339 318.557C241.47 319.678 244.05 319.347 246.434 318.983C247.564 318.813 248.693 318.642 249.819 318.433C250.677 318.315 251.512 318.068 252.296 317.7C252.879 317.36 253.437 316.981 253.967 316.564C254.092 317.235 254.18 317.913 254.232 318.593C254.261 318.774 254.27 318.856 254.27 318.856Z" fill="#090814"/>
<path opacity="0.1" d="M224.138 293.282C223.393 295.244 223.393 297.411 224.138 299.372C220.407 300.007 213.453 301.291 210.895 299.599C211.19 297.817 211.27 296.007 211.133 294.207L224.138 293.282Z" fill="black"/>
<path opacity="0.1" d="M249.205 301.954C246.57 302.141 239.479 302.512 235.509 301.485C235.032 298.049 234.379 294.985 234.379 294.985L248.808 296.05C248.808 296.05 249.051 298.991 249.205 301.954Z" fill="black"/>
<path d="M259.6 202.571C259.6 202.571 259.378 205.237 259.025 208.964C258.227 217.429 256.756 231.404 255.614 232.542C253.976 234.183 254.689 246.245 255.328 248.376C255.968 250.507 255.328 265.851 255.328 265.851C253.719 272.261 252.931 278.849 252.983 285.457C253.197 295.686 250.212 301.014 250.212 301.014C250.212 301.014 236.141 302.292 233.229 299.573C230.317 296.854 233.229 275.228 233.229 275.228C233.229 275.228 238.486 257.54 237.208 254.982C235.929 252.425 234.436 246.244 234.436 246.244V224.718C232.368 221.308 231.452 216.621 231.055 212.383C230.74 208.759 230.73 205.115 231.025 201.489C231.025 201.489 228.378 206.902 225.678 212.255C223.24 217.094 220.758 221.879 220.135 222.587C218.856 224.079 219.922 230.898 220.135 234.307C220.349 237.717 217.79 244.536 217.79 244.536C220.988 246.455 221.628 269.044 221.628 269.044C221.628 269.044 219.283 274.585 224.186 280.764C229.09 286.944 227.171 298.665 226.531 298.239C225.892 297.813 212.887 301.436 210.331 298.239C207.776 295.043 205.002 286.305 205.002 286.305C205.002 286.305 206.281 277.355 203.509 269.257C201.454 263.256 198.934 249.187 197.766 242.295C197.34 239.794 197.263 237.247 197.536 234.725C198.073 229.689 198.901 220.374 198.606 212.988C198.508 210.58 198.577 206.752 198.739 202.264C199.289 186.878 200.951 163.76 200.951 163.76L212.54 155.956L220.172 150.782L222.04 151.068L256.841 156.425L258.193 173.585L259.6 202.571Z" fill="#E6E6E6"/>
<path d="M249.081 62.9862C249.081 62.9862 225.204 82.0928 229.612 78.2576C232.026 76.1519 230.384 67.1763 228.406 59.504C226.776 53.1746 224.922 47.7275 224.922 47.7275C224.922 47.7275 245.765 28.2368 244.25 44.1728C243.717 49.7903 244.161 53.7839 244.958 56.6054C246.42 61.7672 249.081 62.9862 249.081 62.9862Z" fill="#FFB9B9"/>
<path d="M247.094 58.3315L229.388 62.1775L227.549 65.2572C227.549 65.2572 223.784 63.625 223.499 65.4705C223.214 67.316 222.152 78.6832 224.352 79.7486C226.553 80.8141 229.4 81.526 231.886 81.172C234.372 80.818 237.143 78.0433 238.994 76.9779C240.845 75.9125 247.662 70.3716 247.662 70.3716L251.073 65.6152L247.094 58.3315Z" fill="#FFB9B9"/>
<path d="M233.877 68.3133C233.877 68.3133 244.217 57.0142 246.669 58.8089C249.121 60.6035 250.706 64.9763 250.706 64.9763L242.298 74.2087L233.877 68.3133Z" fill="#FFB9B9"/>
<path opacity="0.1" d="M252.211 61.6349C252.211 61.6349 239.969 74.8476 232.661 75.7343C231.996 75.8152 231.34 75.9258 230.683 76.0581C228.777 76.4334 224.615 76.0581 225.276 65.1343L224.351 63.1994L218.668 66.6816L216.749 82.3065L213.338 122.371L208.294 166.982C208.294 166.982 223.784 165.491 228.12 169.399C232.457 173.307 233.663 148.089 233.663 148.089L245.529 96.9401L258.18 64.0491L252.211 61.6349Z" fill="black"/>
<path opacity="0.1" d="M258.18 65.7564L245.529 98.6474L233.663 149.791C233.663 149.791 232.452 175.006 228.12 171.102C226.705 169.823 224.096 169.124 221.226 168.762C217.697 168.381 214.143 168.302 210.601 168.524C209.185 168.6 208.294 168.686 208.294 168.686L213.338 124.074L216.749 84.0098L218.668 68.3849L224.352 64.9027L225.277 66.8376C225.277 67.1229 225.247 67.4044 225.234 67.6902C224.833 77.7832 228.829 78.1411 230.684 77.7743C231.34 77.642 231.997 77.5314 232.662 77.4504C237.838 76.8155 245.488 70.0087 249.508 66.095C251.167 64.4757 252.211 63.35 252.211 63.35L258.18 65.7564Z" fill="black"/>
<path d="M258.18 64.4776L245.529 97.3687L233.663 148.513C233.663 148.513 232.452 173.727 228.12 169.823C226.705 168.544 224.096 167.845 221.226 167.484C217.697 167.103 214.143 167.023 210.601 167.245C209.185 167.322 208.294 167.407 208.294 167.407L213.338 122.795L216.749 82.7311L218.668 67.1062L224.352 63.624L225.277 65.5589C225.277 65.8442 225.247 66.1256 225.234 66.4115C224.833 76.5044 228.829 76.8624 230.684 76.4955C231.34 76.3632 231.997 76.2526 232.662 76.1717C237.838 75.5368 245.488 68.73 249.508 64.8163C251.167 63.1969 252.211 62.0713 252.211 62.0713L258.18 64.4776Z" fill="#0082CE"/>
<path opacity="0.1" d="M225.276 65.5599C225.276 65.8452 225.247 66.1266 225.234 66.4125L225.135 66.4806C223.634 67.4681 221.225 84.1683 221.225 84.1683L218.1 126.717L212.344 158.47C212.344 158.47 211.589 162.089 210.6 167.258C209.185 167.335 208.294 167.42 208.294 167.42L213.338 122.809L216.749 82.7445L218.668 67.1195L224.351 63.6374L225.276 65.5599Z" fill="black"/>
<path d="M229.195 62.7176C229.195 62.7176 225.784 65.4794 224.283 66.4698C222.782 67.4602 220.374 84.1535 220.374 84.1535L217.248 126.702L211.494 158.457C211.494 158.457 206.378 182.964 205.312 195.538C204.245 208.111 199.769 204.488 199.769 204.488C199.769 204.488 196.426 194.685 188.47 194.12C180.513 193.555 184.632 189.074 184.632 189.074C184.632 189.074 189.292 155.502 192.358 149.521C192.406 149.419 192.46 149.32 192.52 149.225C193.178 147.89 193.673 146.481 193.995 145.029C197.027 133.589 200.903 105.39 200.903 105.39L203.32 70.4407C209.503 60.3522 228.715 60.7017 228.715 60.7017L229.195 62.7176Z" fill="#090814"/>
<path opacity="0.1" d="M258.18 64.4777L245.529 97.3662L233.663 148.515C233.663 148.515 232.452 173.729 228.12 169.825C226.705 168.546 224.096 167.847 221.226 167.485C221.275 158.816 221.542 143.26 222.791 136.721C223.872 130.747 224.323 124.676 224.138 118.607L239.633 84.864C239.633 84.864 251.286 70.5049 251.358 68.4505C251.383 67.6917 250.556 66.2856 249.507 64.8065C251.166 63.1866 252.21 62.0614 252.21 62.0614L258.18 64.4777Z" fill="black"/>
<path d="M219.235 210.515L222.078 173.575C222.078 173.575 221.865 146.012 223.643 136.708C224.724 130.734 225.176 124.662 224.991 118.594L240.485 84.8506C240.485 84.8506 252.138 70.4915 252.21 68.4372C252.282 66.3829 246.105 59.5504 246.105 59.5504C246.105 59.5504 259.6 61.1273 261.378 67.1624C263.156 73.1976 272.89 75.5466 272.89 75.5466C272.89 75.5466 277.582 79.8088 277.507 92.0282C277.433 104.248 262.584 113.833 262.584 113.833C262.584 113.833 260.098 136.849 262.23 147.223C264.362 157.597 262.512 208.027 262.512 208.027C262.512 208.027 248.228 208.172 239.274 210.516C230.32 212.86 219.235 210.515 219.235 210.515Z" fill="#090814"/>
<path d="M240.272 151.924L251.212 193.335C251.212 193.335 252.704 197.03 260.379 194.187C268.055 191.345 290.371 182.113 290.371 182.113C290.371 182.113 292.358 178.844 288.665 172.808L277.508 140.13L240.272 151.924Z" fill="#D6D6E3"/>
<path d="M254.432 170.234L272.127 150.786L283.426 146.204L288.06 169.591L266.584 192.926L254.432 170.234Z" fill="#F2F2F2"/>
<path d="M275.256 172.635C275.256 172.635 269.994 175.729 268.604 175.832C267.214 175.935 262.324 185.175 264.392 185.102C266.46 185.029 271.269 182.545 270.787 183.823C270.305 185.102 267.167 188.938 266.259 188.571C265.351 188.205 264.926 191.388 268.818 190.276C272.71 189.164 277.878 188.203 277.878 188.203C277.878 188.203 280.649 186.178 280.756 184.737C280.863 183.296 283.263 175.731 283.263 175.731L275.256 172.635Z" fill="#FFB9B9"/>
<path d="M188.868 67.6231C188.868 67.6231 193.422 57.7948 196.142 54.5467C198.863 51.2985 210.729 47.8041 211.918 48.7628C213.108 49.7216 205.949 55.1051 204.67 55.7953C203.391 56.4855 212.933 62.9002 213.129 63.041C213.326 63.1817 220.591 62.3991 216.86 64.8479C213.13 67.2967 202.099 69.792 202.099 69.792C201.356 69.6636 200.595 69.6882 199.862 69.8641C199.129 70.04 198.439 70.3635 197.835 70.8149C195.699 72.3622 188.868 67.6231 188.868 67.6231Z" fill="#FFB9B9"/>
<path d="M285.042 153.77C284.999 154.388 284.961 155.004 284.922 155.62C284.816 157.499 284.743 159.362 284.696 161.161C284.483 169.489 284.828 176.359 284.828 176.359C284.828 176.359 278.219 172.383 271.184 175.72L270.485 162.242V162.007L269.764 156.113L267.428 137.074C267.428 137.074 263.023 110.648 261.672 109.656C260.321 108.663 271.692 87.2792 271.692 87.2792L277.507 92.0272L281.132 116.462V128.963C281.132 128.963 285.822 142.546 285.042 153.77Z" fill="#090814"/>
<path opacity="0.1" d="M199.054 69.6651L197.69 72.3716C196.048 74.9586 193.562 78.0103 193.562 78.0103C193.562 78.0103 183.866 73.5521 183.866 73.3561C183.866 73.1601 186.809 68.5271 189.201 64.8746C189.938 64.0437 190.386 63.5534 190.386 63.5534C187.542 70.5853 199.054 69.6651 199.054 69.6651Z" fill="black"/>
<path d="M207.296 68.45L203.318 70.4446C203.318 70.4446 198.414 77.051 196.996 77.7629C195.577 78.4748 194.864 78.4023 194.864 78.4023L199.052 70.0911C199.052 70.0911 187.54 71.0119 190.384 63.979C190.384 63.979 177.52 78.0438 176.1 83.7274C176.1 83.7274 168.993 95.5168 170.698 101.343C172.404 107.169 179.298 108.304 184.269 106.53C189.241 104.756 204.522 96.9401 204.522 96.9401L207.296 68.45Z" fill="#090814"/>
<path opacity="0.1" d="M193.012 82.306C193.012 82.306 182.285 94.3126 183.137 95.9448C183.99 97.577 192.445 84.7228 193.012 82.306Z" fill="black"/>
<path opacity="0.2" d="M241.445 49.9862C241.445 49.9862 256.543 45.4387 265.07 61.8477C273.598 78.2566 273.884 79.3951 273.457 80.1747C273.031 80.9543 256.475 76.6244 255.549 78.5425C254.624 80.4606 264.93 88.3456 264.93 88.3456L224.991 118.607L241.773 82.9587C242.897 80.4625 244.396 78.1527 246.218 76.1095C248.977 73.0238 252.751 68.297 251.412 66.8391C250.235 65.5604 248.354 62.2234 245.813 58.3828C243.965 55.5701 241.01 52.3901 241.445 49.9862Z" fill="black"/>
<path d="M241.018 49.5597C241.018 49.5597 256.116 45.0121 264.646 61.4216C273.176 77.831 273.459 78.969 273.033 79.7486C272.607 80.5282 256.05 76.1983 255.125 78.1164C254.2 80.0345 264.505 87.9195 264.505 87.9195L224.993 118.607L241.349 82.5322C242.473 80.0359 243.972 77.7262 245.794 75.6829C248.553 72.5972 252.327 67.8704 250.988 66.4125C249.811 65.1338 247.931 61.7968 245.389 57.9562C243.538 55.1436 240.583 51.9636 241.018 49.5597Z" fill="#090814"/>
<path opacity="0.1" d="M241.018 49.5597C241.018 49.5597 256.116 45.0121 264.646 61.4216C273.176 77.831 273.459 78.969 273.033 79.7486C272.607 80.5282 256.05 76.1983 255.125 78.1164C254.2 80.0345 264.505 87.9195 264.505 87.9195L224.993 118.607L242.132 80.7978C242.796 79.3296 243.693 77.9783 244.788 76.7957C247.491 73.8888 252.514 68.0625 251 66.413C249.823 65.1343 247.943 61.7973 245.402 57.9567C243.538 55.1436 240.583 51.9636 241.018 49.5597Z" fill="black"/>
<path opacity="0.1" d="M244.177 55.2759C243.675 55.679 243.15 56.0532 242.604 56.3966C239.897 58.1014 237.488 60.4159 234.038 60.4159C232.123 60.4185 230.221 60.1061 228.408 59.4912C226.778 53.1618 224.924 47.7147 224.924 47.7147C224.924 47.7147 245.767 28.224 244.252 44.16C243.715 49.7774 243.38 52.4543 244.177 55.2759Z" fill="black"/>
<path d="M251.545 42.0632C251.527 46.0898 250.113 49.9855 247.545 53.0878C244.977 56.19 241.413 58.3071 237.46 59.0789C233.506 59.8507 229.407 59.2295 225.86 57.3211C222.313 55.4127 219.537 52.3348 218.004 48.6111C216.471 44.8874 216.276 40.7479 217.452 36.8967C218.628 33.0455 221.103 29.7204 224.455 27.4872C227.806 25.254 231.829 24.2505 235.837 24.6475C239.846 25.0445 243.593 26.8174 246.441 29.6646C248.066 31.2945 249.353 33.2285 250.228 35.3559C251.104 37.4834 251.552 39.7626 251.545 42.0632Z" fill="#FFB9B9"/>
<path d="M224.117 56.7081C223.952 57.1061 223.666 57.4418 223.298 57.6669L220.518 59.3717L215.321 62.5314L207.096 67.5253C206.902 67.6389 206.706 67.7453 206.507 67.8447C205.543 68.3344 204.48 68.5967 203.398 68.6115C202.317 68.6263 201.247 68.3932 200.269 67.9302C199.531 67.5985 198.882 67.0964 198.375 66.4651C197.869 65.8339 197.519 65.0915 197.355 64.2989C197.136 63.1959 197.229 62.0537 197.622 61C198.015 59.9463 198.693 59.0225 199.581 58.3319C199.624 58.2929 199.677 58.2664 199.734 58.2554C201.484 57.7611 203.131 56.9554 204.595 55.8772L209.771 52.2968L214.393 48.0731L216.73 46.4577C217.072 46.2203 217.475 46.0861 217.892 46.071C218.308 46.0558 218.72 46.1604 219.079 46.3723C221.49 47.7404 226.248 51.3247 224.117 56.7081Z" fill="#E1E7EF"/>
<path d="M220.518 59.348L215.321 62.5078C214.238 58.1433 211.483 55.0616 209.091 52.7323L214.395 48.042C218.429 50.046 220.032 56.7249 220.518 59.348Z" fill="#0082CE"/>
<path opacity="0.1" d="M206.507 67.8235C205.543 68.3132 204.48 68.5755 203.398 68.5903C202.317 68.6051 201.247 68.372 200.269 67.9089C199.531 67.5773 198.882 67.0752 198.375 66.4439C197.869 65.8127 197.519 65.0703 197.355 64.2777C197.136 63.1746 197.229 62.0325 197.622 60.9787C198.015 59.925 198.693 59.0013 199.581 58.3107C200.872 58.8573 202.067 59.6074 203.12 60.5324C204.589 61.8041 205.654 63.4785 206.182 65.3486C206.391 66.1572 206.5 66.9883 206.507 67.8235Z" fill="black"/>
<path d="M217.052 22.7216C217.422 20.2624 219.452 17.9563 221.938 17.9138C223.988 17.8797 225.737 19.269 227.553 20.2194C229.413 21.1776 231.461 21.7126 233.552 21.7863C235.642 21.86 237.723 21.4704 239.645 20.6455C240.763 20.1597 241.893 19.51 243.108 19.6058C244.323 19.7015 245.295 20.5009 246.135 21.3105C248.131 23.2832 249.695 25.6491 250.728 28.258C250.962 29.0519 251.36 29.7879 251.896 30.419C252.345 30.7947 252.834 31.1193 253.354 31.3867C254.245 31.9777 255.01 32.7412 255.601 33.632C256.193 34.5228 256.6 35.523 256.799 36.5736C257.186 38.6863 256.968 40.8651 256.172 42.86C255.7 44.2333 254.922 45.481 253.895 46.5086C253.119 47.2373 252.19 47.7873 251.377 48.4691C250.049 49.5957 249.038 51.0473 248.44 52.6819C247.842 54.3165 247.679 56.0782 247.966 57.7948C245.697 58.3191 243.521 56.286 242.849 54.0613C242.178 51.8367 242.564 49.4496 242.598 47.1267C242.598 46.0953 242.453 44.8763 241.545 44.3816C240.79 43.9556 239.84 44.2622 239.098 44.6779C238.356 45.0936 237.616 45.6367 236.765 45.7349C235.486 45.8801 234.318 44.985 233.602 43.9235C232.885 42.862 232.476 41.6307 231.794 40.548C230.905 39.1202 229.577 38.0246 228.276 36.9592C226.788 35.7358 225.343 34.3722 223.761 33.2727C222.81 32.6121 221.676 32.305 220.742 31.6405C217.921 29.6217 217.052 25.9396 217.052 22.7216Z" fill="#090814"/>
<path opacity="0.1" d="M230.606 51.9641C230.606 51.9641 230.368 52.0194 229.954 52.1344C230.152 52.0203 230.377 51.9615 230.606 51.9641Z" fill="black"/>
<g opacity="0.1">
<path d="M243.709 52.6671C243.048 50.438 243.423 48.0554 243.457 45.7324C243.457 44.7011 243.312 43.4821 242.404 42.9874C241.65 42.5613 240.699 42.8724 239.957 43.2836C239.215 43.6949 238.475 44.2424 237.625 44.3407C236.346 44.4858 235.178 43.5907 234.461 42.5337C233.744 41.4767 233.335 40.2364 232.653 39.1537C231.758 37.7304 230.436 36.6358 229.136 35.565C227.648 34.3415 226.202 32.9779 224.62 31.8784C223.67 31.2178 222.536 30.9152 221.602 30.2462C218.775 28.2259 217.905 24.5434 217.905 21.3253C218.001 20.7154 218.191 20.1239 218.467 19.5717C217.72 20.4375 217.23 21.4943 217.052 22.6233C217.052 25.8413 217.904 29.5239 220.748 31.5442C221.682 32.2132 222.816 32.5158 223.767 33.1764C225.348 34.2759 226.794 35.64 228.282 36.8629C229.583 37.9328 230.904 39.0283 231.8 40.4517C232.482 41.5344 232.886 42.7721 233.608 43.8317C234.329 44.8912 235.501 45.7838 236.771 45.6386C237.624 45.5399 238.349 44.9968 239.104 44.5816C239.858 44.1664 240.809 43.8741 241.551 44.2854C242.459 44.7791 242.621 45.9902 242.604 47.0304C242.57 49.3508 242.178 51.7207 242.855 53.9651C243.533 56.2095 245.695 58.2273 247.972 57.6985C247.901 57.2983 247.855 56.8939 247.835 56.4879C245.943 56.3201 244.276 54.5684 243.709 52.6671Z" fill="black"/>
<path d="M254.748 45.1148C253.972 45.848 253.042 46.3935 252.229 47.0753C251.331 47.828 250.578 48.7379 250.006 49.7606C250.411 49.2437 250.869 48.7721 251.375 48.354C252.194 47.6722 253.119 47.1267 253.894 46.3935C254.512 45.7973 255.035 45.1102 255.446 44.356C255.231 44.6249 254.998 44.8785 254.748 45.1148Z" fill="black"/>
</g>
<path opacity="0.1" d="M231.186 197.256C230.875 198.181 230.431 199.083 230.371 200.061C230.269 201.723 231.284 203.266 231.356 204.932C231.442 206.863 230.265 208.597 229.139 210.174C230.473 210.174 231.932 209.71 232.61 208.563C232.84 208.121 233.008 207.649 233.109 207.161C234.315 202.349 235.488 197.085 233.39 192.593C233.066 191.817 232.595 191.111 232.004 190.513C231.651 192.781 231.949 195.01 231.186 197.256Z" fill="black"/>
<path opacity="0.1" d="M197.835 163.295L194.292 158.518C193.439 157.362 192.556 156.161 192.249 154.759C191.917 153.22 192.305 151.626 192.356 150.068V149.536C192.404 149.434 192.458 149.335 192.518 149.239C193.176 147.904 193.671 146.496 193.993 145.043C194.51 145.556 194.911 146.174 195.17 146.854C196.82 150.878 195.294 155.6 196.658 159.726C197.052 160.908 197.69 162.042 197.835 163.295Z" fill="black"/>
<path d="M182.528 154.805H179.863V236.127H182.528V154.805Z" fill="#D6D6E3"/>
<path d="M190.808 154.805H188.139V236.127H190.808V154.805Z" fill="#D6D6E3"/>
<path d="M173.966 319.819C176.484 319.819 178.524 317.779 178.524 315.263C178.524 312.746 176.484 310.706 173.966 310.706C171.449 310.706 169.408 312.746 169.408 315.263C169.408 317.779 171.449 319.819 173.966 319.819Z" fill="#090814"/>
<path d="M157.836 232.376C157.836 232.376 162.38 228.681 166.364 229.96C170.348 231.238 180.716 232.517 182.564 239.051C184.412 245.585 182.564 317.334 182.564 317.334C182.564 317.334 173.734 319.627 171.333 318.469C168.933 317.311 169.202 306.535 169.202 306.535L168.494 242.906L157.836 232.376Z" fill="#0082CE"/>
<path opacity="0.1" d="M157.836 232.376C157.836 232.376 162.38 228.681 166.364 229.96C170.348 231.238 180.716 232.517 182.564 239.051C184.412 245.585 182.564 317.334 182.564 317.334C182.564 317.334 173.734 319.627 171.333 318.469C168.933 317.311 169.202 306.535 169.202 306.535L168.494 242.906L157.836 232.376Z" fill="#0082CE"/>
<path d="M199.193 313.659L180.061 317.922L179.86 314.512L179.737 247.565C179.731 244.437 179.006 241.353 177.618 238.55C176.23 235.747 174.216 233.301 171.732 231.4C171.732 231.4 181.636 231.268 189.213 234.691C190.833 235.42 192.458 236.136 194.125 236.75C196.193 237.512 198.998 239.136 199.178 242.341C199.408 246.518 200.21 287.895 200.495 302.958C200.569 306.569 200.13 310.172 199.193 313.659Z" fill="#0082CE"/>
<path d="M183.065 148.766H178.622V155.726H183.065V148.766Z" fill="#090814"/>
<path d="M191.413 149.865H186.971V156.825H191.413V149.865Z" fill="#090814"/>
<path d="M191.409 149.865H186.954C186.124 149.887 185.318 150.141 184.626 150.6C183.935 151.058 183.387 151.702 183.044 152.457C182.98 152.593 182.921 152.734 182.865 152.883L181.884 151.937L179.846 149.968L178.6 148.766C178.6 148.766 186.826 144.609 191.409 149.865Z" fill="#090814"/>
<path d="M193.349 323.029C195.867 323.029 197.907 320.989 197.907 318.472C197.907 315.956 195.867 313.916 193.349 313.916C190.832 313.916 188.791 315.956 188.791 318.472C188.791 320.989 190.832 323.029 193.349 323.029Z" fill="#090814"/>
<path d="M146.286 316.81C148.804 316.81 150.844 314.77 150.844 312.253C150.844 309.737 148.804 307.697 146.286 307.697C143.769 307.697 141.728 309.737 141.728 312.253C141.728 314.77 143.769 316.81 146.286 316.81Z" fill="#090814"/>
<path d="M154.852 231.4C154.852 231.4 141.916 234.81 141.208 267.347C140.5 299.885 140.355 303.29 140.355 303.29C140.355 303.29 140.636 312.666 159.683 318.492H171.336L173.186 243.76C173.186 243.76 171.054 232.376 154.852 231.4Z" fill="#0082CE"/>
<path d="M161.742 327C164.26 327 166.3 324.96 166.3 322.444C166.3 319.928 164.26 317.888 161.742 317.888C159.225 317.888 157.184 319.928 157.184 322.444C157.184 324.96 159.225 327 161.742 327Z" fill="#090814"/>
</g>
<defs>
<clipPath id="clip0_5_136">
<rect width="395" height="327" fill="white"/>
</clipPath>
</defs>
</svg>
